/* XPM */
static char *_4fe8cc86a2c4760ff1f3baee4d90ec55f9plI7DAAla6Hl2[] = {
/* columns rows colors chars-per-pixel */
"42 42 124 2 ",
"   c #FFA300",
".  c #FFA400",
"X  c #FFA900",
"o  c #FFAE00",
"O  c #FFB300",
"+  c #FFB500",
"@  c #FFB900",
"#  c #FFBF00",
"$  c #FFA71C",
"%  c #FFA731",
"&  c #FFC200",
"*  c #FFC305",
"=  c #FFC30D",
"-  c #FFC313",
";  c #FFC315",
":  c #FFC414",
">  c #FFC31B",
",  c #FFC41B",
"<  c #FFC41F",
"1  c #FFC81E",
"2  c #FFC320",
"3  c #FFC622",
"4  c #FFC526",
"5  c #FFC729",
"6  c #FFC52C",
"7  c #FFC82D",
"8  c #FFC635",
"9  c #FFC832",
"0  c #FFC738",
"q  c #FFC83E",
"w  c #FEA940",
"e  c #FEAA46",
"r  c #FEAB4B",
"t  c #FEAF5F",
"y  c #CCAE65",
"u  c #CDA268",
"i  c #C1A876",
"p  c #FEB164",
"a  c #FEB77A",
"s  c #FDB87E",
"d  c #FDBF7F",
"f  c #FFC942",
"g  c #FFCB47",
"h  c #FFCB4B",
"j  c #FFCD4E",
"k  c #FFCD52",
"l  c #FFCF57",
"z  c #FFCD59",
"x  c #FFD055",
"c  c #FFD059",
"v  c #FFD25D",
"b  c #FFD361",
"n  c #FFD564",
"m  c #FFD867",
"M  c #FFD76A",
"N  c #FFD86A",
"B  c #FFD96C",
"V  c #FFDD75",
"C  c #FFD27D",
"Z  c #FFDE79",
"A  c #FFDF7D",
"S  c #FFE07E",
"D  c #9F8B8C",
"F  c #BBB6B8",
"G  c #FDBD8A",
"H  c #C0B9BD",
"J  c #E7C48C",
"K  c #FCCD88",
"L  c #FDC091",
"P  c #FDC49B",
"I  c #FDC59D",
"U  c #FFE080",
"Y  c #FFE287",
"T  c #FFE38E",
"R  c #FFE493",
"E  c #FFE596",
"W  c #FEE598",
"Q  c #FEE69D",
"!  c #FCCBA9",
"~  c #FCD4AB",
"^  c #FCCEB0",
"/  c #FCD0B3",
"(  c #FCD0B4",
")  c #FBD5BE",
"_  c #FEE7A3",
"`  c #FEE8A7",
"'  c #FFEDAA",
"]  c #FEE9AC",
"[  c #FDE9B0",
"{  c #FDEAB5",
"}  c #FDEBB9",
"|  c #FCECBF",
" . c #FFF2B3",
".. c #FBD7C2",
"X. c #FBDCCA",
"o. c #FBEDC4",
"O. c #FCEECC",
"+. c #FBE1D2",
"@. c #FAE4D7",
"#. c #FBEFD2",
"$. c #FAE5DB",
"%. c #FAE7DC",
"&. c #FBF0D4",
"*. c #FBF1DA",
"=. c #FAF2DF",
"-. c #E9E7E6",
";. c #FAEBE2",
":. c #FAECE3",
">. c #FAEDE5",
",. c #F1EFEF",
"<. c #FAF4E5",
"1. c #FAF5EB",
"2. c #F9F1EC",
"3. c #F9F6EF",
"4. c #F4F3F2",
"5. c #F6F5F5",
"6. c #F9F3F0",
"7. c #F9F4F3",
"8. c #F9F7F6",
"9. c #F9F8F7",
"0. c #F9F9F9",
"q. c #F8FAFE",
"w. c #F8FFFF",
"e. c #FDFDFC",
/* pixels */
"0.0.0.0.0.0.0.0.0.0.0.0.0.0.0.0.0.0.0.0.0.0.0.0.0.0.0.0.0.0.0.0.0.0.0.0.0.0.0.0.0.0.",
"0.0.0.0.0.0.0.0.0.0.0.0.0.0.0.0.0.0.0.0.0.0.0.0.0.0.0.0.0.0.0.0.0.0.0.0.0.0.0.0.0.0.",
"0.0.0.0.0.0.0.0.0.0.0.0.0.0.0.0.0.0.0.0.0.0.0.0.0.0.0.0.0.0.0.0.0.0.0.0.0.0.0.0.0.0.",
"0.0.0.0.0.0.0.0.0.0.0.0.0.0.0.0.0.0.0.0.0.0.0.0.e.e.0.0.0.0.0.0.0.0.0.0.0.0.0.0.0.0.",
"0.0.0.0.0.0.0.0.0.0.0.0.0.0.0.0.0.0.0.0.0.0.0.,.D F e.0.0.0.0.0.0.0.0.0.0.0.0.0.0.0.",
"0.0.0.0.0.0.0.0.0.0.0.0.0.0.0.0.0.0.0.0.0.0.0.4.i u 7.0.0.0.0.0.0.0.0.0.0.0.0.0.0.0.",
"0.0.0.0.0.0.0.0.0.0.0.0.0.0.0.0.0.0.0.0.0.0.0.0. .z $.w.9.0.0.0.0.0.0.0.0.0.0.0.0.0.",
"0.0.0.0.0.0.0.0.0.0.0.0.0.0.0.0.0.0.0.0.0.0.9.q.o.z ! w.8.0.0.0.0.0.0.0.0.0.0.0.0.0.",
"0.0.0.0.0.0.0.0.0.0.0.0.0.0.0.0.0.0.0.0.0.0.0.0.[ M . +.w.8.0.0.0.0.0.0.0.0.0.0.0.0.",
"0.0.0.0.0.0.0.0.0.0.0.0.0.0.0.0.0.0.0.0.0.0.q.=.U g # $ >.w.9.0.0.0.0.0.0.0.0.0.0.0.",
"0.0.0.0.0.0.0.0.0.0.0.0.0.0.0.0.0.0.0.0.0.0.q.[ M & 7 @ p 9.0.0.0.0.0.0.0.0.0.0.0.0.",
"0.0.0.0.0.0.0.0.0.0.0.0.0.0.0.0.0.0.0.0.0.0.7.E c & , 9 X ^ w.9.0.0.0.0.0.0.0.0.0.0.",
"0.0.0.0.0.0.0.0.0.0.0.0.0.0.0.0.0.0.0.0.0.q.1.T k & < < # r 7.0.0.0.0.0.0.0.0.0.0.0.",
"0.0.0.0.0.0.0.0.0.0.0.0.0.0.0.0.0.0.0.0.0.q.<.Y h & < , < . ;.w.0.0.0.0.0.0.0.0.0.0.",
"0.0.0.0.0.0.0.0.0.0.0.0.0.0.0.0.0.0.0.0.0.q.*.S q * , , > . :.w.0.0.0.0.0.0.0.0.0.0.",
"0.0.0.0.0.0.0.0.0.0.0.0.0.0.0.0.0.0.0.0.9.q.O.V 6 : , < & % 2.q.0.0.0.0.0.0.0.0.0.0.",
"0.0.0.0.0.0.0.0.0.0.0.0.0.0.0.0.0.0.0.0.0.q.} B ; , : 3 @ t 9.0.0.0.0.0.0.0.0.0.0.0.",
"0.0.0.0.0.0.0.0.0.0.0.0.0.0.0.0.0.0.0.0.0.9._ b & < ; 5 O G w.0.0.0.0.0.0.0.0.0.0.0.",
"0.0.0.0.0.0.0.0.0.0.0.0.0.0.0.0.0.0.0.0.q.1.T k & < ; 7 X / w.9.0.0.0.0.0.0.0.0.0.0.",
"0.0.0.0.0.0.0.0.0.0.0.0.0.0.0.0.0.0.0.9.q.&.Z 0 = , , 4   @.w.9.0.0.0.0.0.0.0.0.0.0.",
"0.0.0.0.0.0.0.0.0.0.0.0.0.0.0.0.0.0.0.0.q.{ N = < : < # e 7.0.0.0.0.0.0.0.0.0.0.0.0.",
"0.0.0.0.0.0.0.0.0.0.0.0.0.0.0.0.0.0.0.0.7.R l & < ; 5 O L w.9.0.0.0.0.0.0.0.0.0.0.0.",
"0.0.0.0.0.0.0.0.0.0.0.0.0.0.0.0.0.0.9.q.#.Z 8 = , ; 5 . X.w.9.0.0.0.0.0.0.0.0.0.0.0.",
"0.0.0.0.0.0.0.0.0.0.0.0.0.0.0.0.0.0.0.0.` n & < : < # w 6.0.0.0.0.0.0.0.0.0.0.0.0.0.",
"0.0.0.0.0.0.0.0.0.0.0.0.0.0.0.0.0.0.q.=.U f & , ; 7 o I w.9.0.0.0.0.0.0.0.0.0.0.0.0.",
"0.0.0.0.0.0.0.0.0.0.0.0.0.0.0.0.0.0.0.] n & < : , 4   %.w.9.0.0.0.0.0.0.0.0.0.0.0.0.",
"0.0.0.0.0.0.0.0.0.0.0.0.0.0.0.0.9.q.*.A q & , ; 4 + s q.0.0.0.0.0.0.0.0.0.0.0.0.0.0.",
"0.0.0.0.0.0.0.0.0.0.0.0.0.0.0.0.0.8.Q v & < : ; 5   +.w.9.0.0.0.0.0.0.0.0.0.0.0.0.0.",
"0.0.0.0.0.0.0.0.0.0.0.0.0.0.0.9.q.| B 2 : , ; 5 + a q.0.0.0.0.0.0.0.0.0.0.0.0.0.0.0.",
"0.0.0.0.0.0.0.0.0.0.0.0.0.0.9.q.*.A q & < : : 4   $.w.9.0.0.0.0.0.0.0.0.0.0.0.0.0.0.",
"0.0.0.0.0.0.0.0.0.0.0.0.0.9.q.1.T j & < : - 7 o P w.9.0.0.0.0.0.0.0.0.0.0.0.0.0.0.0.",
"0.0.0.0.0.0.0.0.0.0.0.0.0.q.3.W x & < : ; 4 # r 7.0.0.0.0.0.0.0.0.0.0.0.0.0.0.0.0.0.",
"0.0.0.0.0.0.0.0.0.0.0.0.0.8._ c & < : : < 3   @.w.9.0.0.0.0.0.0.0.0.0.0.0.0.0.0.0.0.",
"0.0.0.0.0.0.0.0.0.0.0.0.q.} m > , , : < 5 . ) w.9.0.0.0.0.0.0.0.0.0.0.0.0.0.0.0.0.0.",
"0.0.0.0.0.0.0.0.0.0.0.q.*.A f & , ; 5 < X ( w.9.0.0.0.0.0.0.0.0.0.0.0.0.0.0.0.0.0.0.",
"0.0.0.0.0.0.0.0.0.0.0.0.' M ; 6 6 5 # o ..w.0.0.0.0.0.0.0.0.0.0.0.0.0.0.0.0.0.0.0.0.",
"0.0.0.0.0.0.0.0.0.0.e.-.y 1 & & # + d ;.w.9.0.0.0.0.0.0.0.0.0.0.0.0.0.0.0.0.0.0.0.0.",
"0.0.0.0.0.0.0.0.0.0.0.5.H J C K ~ $.q.w.9.0.0.0.0.0.0.0.0.0.0.0.0.0.0.0.0.0.0.0.0.0.",
"0.0.0.0.0.0.0.0.0.0.0.0.e.q.q.q.w.w.0.0.0.0.0.0.0.0.0.0.0.0.0.0.0.0.0.0.0.0.0.0.0.0.",
"0.0.0.0.0.0.0.0.0.0.0.0.8.0.0.0.9.9.0.0.0.0.0.0.0.0.0.0.0.0.0.0.0.0.0.0.0.0.0.0.0.0.",
"0.0.0.0.0.0.0.0.0.0.0.0.0.0.0.0.0.0.0.0.0.0.0.0.0.0.0.0.0.0.0.0.0.0.0.0.0.0.0.0.0.0.",
"0.0.0.0.0.0.0.0.0.0.0.0.0.0.0.0.0.0.0.0.0.0.0.0.0.0.0.0.0.0.0.0.0.0.0.0.0.0.0.0.0.0."
};
