/* XPM */
static char *_cd2f8a185a44ea5bf00209fed22c0186jUr4jECN4hfVaaY[] = {
/* columns rows colors chars-per-pixel */
"42 42 204 2 ",
"   c black",
".  c #230000",
"X  c #540000",
"o  c #5E0000",
"O  c #420916",
"+  c #5C0012",
"@  c #630000",
"#  c #6B0001",
"$  c #730000",
"%  c #7D0000",
"&  c #7A0009",
"*  c #730415",
"=  c #7D0112",
"-  c #69131D",
";  c #7E141E",
":  c #5E1D24",
">  c #7B1D23",
",  c #4B262A",
"<  c #5F2C2E",
"1  c #5E3132",
"2  c #66272A",
"3  c #772529",
"4  c #792B2E",
"5  c #7E2F31",
"6  c #6C3435",
"7  c #6F3E3D",
"8  c #743435",
"9  c #7C3435",
"0  c #7A3B3B",
"q  c #75413E",
"w  c #7D403F",
"e  c #774442",
"r  c #73716A",
"t  c #840001",
"y  c #8C0000",
"u  c #850009",
"i  c #8B000B",
"p  c #940000",
"a  c #990001",
"s  c #95000C",
"d  c #99000D",
"f  c #850214",
"g  c #8C0113",
"h  c #8E0618",
"j  c #840D1A",
"k  c #8B0B1A",
"l  c #940115",
"z  c #990013",
"x  c #970418",
"c  c #940C1B",
"v  c #990D1C",
"b  c #84161F",
"n  c #8C141E",
"m  c #94121E",
"M  c #99141F",
"N  c #8B1720",
"B  c #851E25",
"V  c #8E1C24",
"C  c #921720",
"Z  c #991721",
"A  c #931B23",
"S  c #991B24",
"D  c #872227",
"F  c #8D2026",
"G  c #84262B",
"H  c #8B2429",
"J  c #862A2E",
"K  c #8B2A2D",
"L  c #932127",
"P  c #9A2026",
"I  c #94252A",
"U  c #9A242A",
"Y  c #942A2E",
"T  c #9A2A2E",
"R  c #8B2F31",
"E  c #962F31",
"W  c #9B2E31",
"Q  c #833334",
"!  c #8C3435",
"~  c #8C3738",
"^  c #853B3B",
"/  c #8D3B3A",
"(  c #943335",
")  c #9B3334",
"_  c #953738",
"`  c #9B3738",
"'  c #943B3B",
"]  c #9C3B3C",
"[  c #A03C3D",
"{  c #93413F",
"}  c #9C403F",
"|  c #864443",
" . c #8C4443",
".. c #844B48",
"X. c #894E4A",
"o. c #944544",
"O. c #9D4342",
"+. c #944947",
"@. c #9E4947",
"#. c #954B49",
"$. c #9B4C49",
"%. c #8B524E",
"&. c #93514E",
"*. c #9E514E",
"=. c #895954",
"-. c #975854",
";. c #975A56",
":. c #9D5B56",
">. c #9E5F5A",
",. c #A24443",
"<. c #A14846",
"1. c #A14C4A",
"2. c #A1524E",
"3. c #A35552",
"4. c #A35A56",
"5. c #A45E59",
"6. c #A85D59",
"7. c #94635D",
"8. c #99635D",
"9. c #A5625D",
"0. c #8D6861",
"q. c #976560",
"w. c #9D6761",
"e. c #936E67",
"r. c #9B6B64",
"t. c #86746C",
"y. c #95746D",
"u. c #99736C",
"i. c #8E7D74",
"p. c #937C74",
"a. c #9B7B73",
"s. c #A56661",
"d. c #A86761",
"f. c #A56A64",
"g. c #A96B65",
"h. c #A76F68",
"j. c #AB6F68",
"k. c #A4756D",
"l. c #AB746D",
"z. c #B1766E",
"x. c #A37770",
"c. c #AD7770",
"v. c #A47C74",
"b. c #AD7C74",
"n. c #B27A73",
"m. c #9C8279",
"M. c #9A847B",
"N. c #A0857B",
"B. c #A4847B",
"V. c #AD847B",
"C. c #AD887E",
"Z. c #B18077",
"A. c #B2857C",
"S. c #B1887E",
"D. c #9B8D83",
"F. c #979287",
"G. c #A48C83",
"H. c #AC8D83",
"J. c #B48C83",
"K. c #B98E85",
"L. c #AE9287",
"P. c #A59489",
"I. c #A99389",
"U. c #AC998F",
"Y. c #B49087",
"T. c #B89086",
"R. c #B5948A",
"E. c #B9958B",
"W. c #B5998E",
"Q. c #B9998E",
"!. c #A79D91",
"~. c #AD9C91",
"^. c #B49C91",
"/. c #BB9D92",
"(. c #AAA396",
"). c #A9A69A",
"_. c #BDA196",
"`. c #B3A69A",
"'. c #B4A699",
"]. c #BDA599",
"[. c #BCAA9D",
"{. c #B4AEA2",
"}. c #BBAEA1",
"|. c #BAB3A5",
" X c #BDB7AA",
".X c #C1A69A",
"XX c #C2AA9D",
"oX c #C3ADA1",
"OX c #C4B2A5",
"+X c #C8B4A7",
"@X c #C6B6A9",
"#X c #C9B6A9",
"$X c #C5BAAC",
"%X c #CABAAC",
"&X c #CCBEB0",
"*X c #C7C0B1",
"=X c #CCC2B4",
"-X c #CDC6B8",
";X c #CFC9BA",
":X c #D1C5B6",
">X c #D2C7B8",
",X c #D3CABB",
"<X c #D5CFC0",
"1X c #D9D4C4",
/* pixels */
"/.p ' ) ) ( ( ! g l.^.y ] ! ! ( ! ] y V.J.% / ) ( o.' W ] ] s b..X` @.W ) ( ) ) ( ! ",
"Q.d { _ _ ` ` ' t Y._.@ q ] ' ] ] ' p b.J.l ' ~ ! O.,.) 3.] T J.Q.T @.` ` O.@.' _ ` ",
"J.y z p p s l x p 9.K.t $ t y p p y +.J.S.y l t y t u d p c y Z./.y M l s ) T g v l ",
"*XD.H.S.Z.b.l.b.b.J.$XG.I.I.W.R.V.G.-X1X#XR.C.S.B.N.k.b.b.b.Z.OX>Xg.l.l.l.f.d.j.g.l.",
"Z.A.S.b.W./.h.b.b.b.B.B.S.J.J.R.;X].J.H.^.]._./.E.E.1XXXJ._._.Q.E.S.J.C.OXXXf.a.u.b.",
"% % s t :.a.y v s t y y y p y c [.u y y % y p p y y %Xd.p ) l p s Z z p b.S.p A k l ",
"_ _ ' C w.A.l ] _ ' ] ] ] _ Q <.oX9 ~ ] ' ' / ' w H &Xb.S ] ] ] ] ` } f V.V.% ( ( 6 ",
"' ] ' W f.S.n ' ( j V T T J 3 O.=Xe.4 A I f & h N p =Xb.p E T U W W K X G.R.$ ..0 I ",
"J.J.C.J.J._.R.Q.l.J.B.h.g.e.8.8.OX%X/.W._.].]././.R.=XOXQ.U.W.oXXX.X_._.oX X~.[.'.XX",
"T T T T I M ) _ u W.j.T ' ] ` _ c ; ^ $.) E.b.1.:.%.] O. .o.) b.9.] 1.O.) V +.[ z /.",
"_ ] ] ' ] ' ^ 7 k J.0.> ' 1 8 9 ~ ^ 6 ( l b.4.l U I ) ) ) ` S g.3.T 5 ( [ _ +.4.V H.",
"_ y y y % t $ u y Z.7.$ g O - j + * n I p l.3.p O.W W M c M p k.X.% k s g = a N   M.",
"OXQ..XJ.R.R.Y.J.b.$X>X_.V.w.8.f.r.0.8.9.9./.A.5.g.l.g.9.e.l.e.'.H.e.z.n.k.t.x.n.k.#X",
"OXP.F.W.#X%XS.V.V.V.J.J.V.e.^.].b.B.a.j.l.m.a.l.l._.#XoXY.R.E.Q.E._.(.^.=X).y.J._./.",
"A t y t l.v.y z p p p y g t u.V.t c f m l i = f D y 4.] y a p p p t # t J.r @ z T O.",
"] [ ] V l.S.M } ] ] / ^ ] N a.C.G q _ ` ] ' 8 9 ^ M V.l.O.] ] ] ] ] ,.s W.m.k ] ` ` ",
"Z y ( p S.Z.t 3 U T U L T y x.l.t * ) ) Y 4 I I K S J.9.T ' _ ( ) ) ] p U.n.a ` T T ",
"g.m...W '.OX| q.*.@.3.3.:.s._.OXJ.A.Y Q o.$.$.+.;.s./.9.] S k < R T ` p Q.J._ ] @.1.",
"XX+X/._.oXOXXXXX=X>X+X%X%X=X=X>X,X=X$X=XXX].].].XX.XoX/..X#X#XB.G.A.B.B.`.@XXX%XXX].",
"x a F > l p V y oXW.$ ! R U U N L p W.^.% W U : V S l U C R.,XU / ] ] _ , @ @.+X) S ",
"/ ' ] ] ] ] O.p OXT.y ' ` ] ] _ ' % J.V.& ' ] / ' ] ] O.l l.:XL / ] ` _ ] 9 &.OX] _ ",
"$ $ p i l p v y oXG.% = f f s s f # p.b.y M p p p p p p y f.oXp s p y t y % 8 OXp i ",
"v.b.v.u.k.a.b.l.>X].s.a.y.y.b.b.v.f.]..Xh.b.S.J.J.Y.R.E.R.}.:X].S.Y.J.T.N.N.D.-XA.a.",
"OXR.R.A.x.G.J.V.~.,X-X|.,X:X#XoX].:X%X%X>X1XOX'.[.oX_.Q..X.XQ.=X+XJ.R.E.A.Z.R.J.L.XX",
"4.y $ p g % y g # J.F.. o.K % t y A M p 3.=Xu % % % p p p p y S.S.y p p p p p t % 5.",
"c.T O.' [ [ ] O.p H.Q.t 2 / | ~ _ ( ` U 3.=X$._ { { O.] ] O.M S.C.Y O.O.] ] } o.) f.",
"b.$ b z i M U T p L.W.t ;.<.( D Q ' ' ! 9.>X) p = p p s v T p S.v.y S ) z t t d p 2.",
"=X[.oX+X%X+XOX{.`.&X=XOX=X%X&X%X%X%X%X$X=X-X]._.[.OX+XOXoXoXXX+X+X.XXXXX#XOX[.XXXX#X",
"9.d.w.:.oXE. .=.e /  .e e ~ E.A.' *.$.#.$.~ 4.6.s.k.%Xb.4.3.3.1.O.f.h.2.OX_.5.l.l.l.",
"V m T $ D.S.% ) R Q 4 2 8 p V.u.s W Y 2 K ) B L H y oX4.s T ) W ` W W p _.Y.p U z v ",
"Y Y ) % V.V.# I c S S n K t p.e.t T L D H T E H n z #X5.p G Z Z T U E p /.S.p Y 3 Y ",
"X.%.;.^ W.(.;.g.h.8.>.w.>.X.}.).e.:.4.3.4.@.] 4.l.4.%Xb.4.=.w.9.4.9.4.2.+XQ.3.8.7.:.",
"=XXXXX[.{.|.XX].[.$X,XOX;X1X=X=X&X+X#X#XOX>X=X=X=X#X+XOX%X%X%X>X>XXXOXOX#X%X#XOXOX:X",
"[.y T S k y p g y v.}.y 9.h.$ o z L L ) p XXH.p W I c l L T l  .4.d ` z s M c J # k.",
"!.k O.' [ [ ' O.S V.XXl V i ' ^ | ] ] O.l U.oX9.T ` ] ' ] ~ 0 | +.] O.] ,.] ] +.3 k.",
"].y s y p p p p X v.XXy Y.l.p s l p p p y E.,X&XOXp p p a % p U c p p p p p p t y 5.",
",XJ.H.G.S.A.J.Q.F.|.%X5.-XOXf.J.A.J.Y.R.R.%X>X_.1X.XS.E.E.Q.R.[.=X_..XXX/.J.R.J.J.XX",
"v.H.J.R.>X`.x.J.J.V.i.m.B.l.Z.R.>XXX_._.].R.Q.R.b.J.<X/.x.v.c.9.Z.E.R.R.=X.XS.S.A.J.",
"s p l % U.H.% s % y i t y l s y W.` p p p x p p T p oX5.y f s ; % p p y J.d.y s p p ",
"] ( ' t ~.K.p ' _ ' ] ] ' ] ' N E.>.( O.] _ ] ) <.( OXs.A ] 9 / ' ' O.l /.l.v ] ) ` ",
"`  .O.1..XR.p ' ) F v W T T I Q %Xo.h v U ` ` ] ] $ $Xp.U / , C S T ` p _.J.P @.O.] ",
"&X].].OX+X].Q.Q.E..XoXR.R.R.E._.=X]._.oXQ.V.R.J.Q.XX&X$X].].[.OXoX_.]./.oX#X].XX.XXX"
};
