/* XPM */
static char *_3aaa1d916014043aa9ea12b980202cdHcyW2t7lW7iOV5As[] = {
/* columns rows colors chars-per-pixel */
"42 42 216 2 ",
"   c black",
".  c #010000",
"X  c #010101",
"o  c #020001",
"O  c #030102",
"+  c #020202",
"@  c gray1",
"#  c #040203",
"$  c #040404",
"%  c gray2",
"&  c #070506",
"*  c #060606",
"=  c #070707",
"-  c #080607",
";  c gray3",
":  c gray4",
">  c #0C0C0C",
",  c #0E0E0E",
"<  c gray6",
"1  c #151515",
"2  c gray9",
"3  c #191919",
"4  c gray10",
"5  c #1C1A1B",
"6  c #1D1B1C",
"7  c gray11",
"8  c #1D1D1D",
"9  c #1E1C1D",
"0  c #1F1D1E",
"q  c #1E1E1E",
"w  c gray12",
"e  c #201E1F",
"r  c #211F20",
"t  c #202020",
"y  c gray13",
"u  c #222021",
"i  c #232122",
"p  c #222222",
"a  c #232323",
"s  c #242223",
"d  c gray14",
"f  c #252525",
"g  c #262425",
"h  c #272526",
"j  c gray15",
"k  c #292728",
"l  c #282828",
"z  c gray16",
"x  c #2A2829",
"c  c #2A2A2A",
"v  c gray17",
"b  c #2C2C2C",
"n  c #2D2D2D",
"m  c #2E2C2D",
"M  c #2F2D2E",
"N  c gray18",
"B  c #2F2F2F",
"V  c #302E2F",
"C  c #312F30",
"Z  c gray19",
"A  c #313131",
"S  c #323031",
"D  c #333132",
"F  c #323232",
"G  c #353334",
"H  c #343434",
"J  c #373737",
"K  c #393939",
"L  c gray24",
"P  c #3F3F3F",
"I  c #403E3F",
"U  c gray25",
"Y  c gray26",
"T  c #444444",
"R  c gray30",
"E  c #505050",
"W  c #515151",
"Q  c gray32",
"!  c #565656",
"~  c gray34",
"^  c #585858",
"/  c gray35",
"(  c #5A5A5A",
")  c #5D5D5D",
"_  c #5F5F5F",
"`  c #656565",
"'  c #676767",
"]  c #686868",
"[  c DimGray",
"{  c #6A6869",
"}  c gray42",
"|  c #6C6C6C",
" . c #6D6D6D",
".. c gray43",
"X. c #6F6F6F",
"o. c gray44",
"O. c #717171",
"+. c #727272",
"@. c gray45",
"#. c #747474",
"$. c gray46",
"%. c #767676",
"&. c #777777",
"*. c gray47",
"=. c #797979",
"-. c gray48",
";. c #7B7B7B",
":. c #7C7C7C",
">. c gray49",
",. c #7E7E7E",
"<. c #818181",
"1. c gray51",
"2. c #838383",
"3. c #848484",
"4. c gray52",
"5. c #868686",
"6. c gray53",
"7. c #8F8D8E",
"8. c #908E8F",
"9. c gray57",
"0. c #959595",
"q. c gray59",
"w. c gray60",
"e. c #9A9A9A",
"r. c #9B9B9B",
"t. c gray61",
"y. c #9D9D9D",
"u. c gray62",
"i. c #A2A2A2",
"p. c gray64",
"a. c #A4A2A3",
"s. c #A4A4A4",
"d. c #A5A5A5",
"f. c gray65",
"g. c gray66",
"h. c #AAAAAA",
"j. c gray67",
"k. c #ACACAC",
"l. c gray68",
"z. c #AEAEAE",
"x. c #AFAFAF",
"c. c gray69",
"v. c #B1B1B1",
"b. c #B2B2B2",
"n. c #B4B4B4",
"m. c gray71",
"M. c #B6B6B6",
"N. c gray72",
"B. c #BCBCBC",
"V. c gray74",
"C. c gray",
"Z. c #C0C0C0",
"A. c gray76",
"S. c gray77",
"D. c #C5C5C5",
"F. c #C7C5C6",
"G. c #C6C6C6",
"H. c gray78",
"J. c gray79",
"K. c #CBC9CA",
"L. c #CACACA",
"P. c #CBCBCB",
"I. c gray80",
"U. c #CDCDCD",
"Y. c #CECECE",
"T. c gray81",
"R. c #D0D0D0",
"E. c gray82",
"W. c #D2D0D1",
"Q. c #D2D2D2",
"!. c LightGray",
"~. c gray83",
"^. c #D5D5D5",
"/. c gray84",
"(. c #D7D7D7",
"). c #D8D8D8",
"_. c gray85",
"`. c #DADADA",
"'. c gray86",
"]. c gainsboro",
"[. c #DDDDDD",
"{. c gray87",
"}. c #DFDFDF",
"|. c gray88",
" X c #E1E1E1",
".X c #E2E2E2",
"XX c gray89",
"oX c #E4E4E4",
"OX c gray90",
"+X c #E7E7E7",
"@X c #E9E7E8",
"#X c gray91",
"$X c #E9E9E9",
"%X c #EAEAEA",
"&X c gray92",
"*X c #ECECEC",
"=X c gray93",
"-X c #EEECED",
";X c #EEEEEE",
":X c #EFEFEF",
">X c gray94",
",X c #F1F1F1",
"<X c gray95",
"1X c #F3F3F3",
"2X c #F4F4F4",
"3X c gray96",
"4X c #F6F6F6",
"5X c gray97",
"6X c #F8F8F8",
"7X c #F9F9F9",
"8X c gray98",
"9X c #FBFBFB",
"0X c gray99",
"qX c #FDFDFD",
"wX c #FEFEFE",
"eX c white",
/* pixels */
"0X0XY.1.&.@.&.@.@.&.@.=.@.=.@.&.@.=.&.&.&.&.&.&.@.&.&.@.&.&.@.=.@.=.@.&.&.=.6.Y.9X0X",
"0Xv.=.oX0X0X0X0X0X0X0X0X0X0X0X0X0X0X0X0X0X0X0X0X0X0X0X0X0X0X0X0X0X0X0X0X0X0X.X=.v.0X",
"Y.=.0X0X0X0X0X0X0X0X0X0X0X0X0X0X0X0X0X0X0X0X0X0X0X0X0X0X0X0X0X0X9X0X0X0X0X0X0X9X=.Y.",
"1..X0X9X0X0X0X0X0X0X0X0X0X0X0X9X0X0X0X0X0X0X0X0X0X0X0X0X0X0X0X0X0X0X0X0X0X0X0X0X{.6.",
"&.9X0X0X0X0X0X0X0X0X0X0X0X0X0X0X0X0X0X0X9X0X0X0X0X0X0X0X0X0X0X0X0X0X0X0X0X0X0X0X9X&.",
"&.0X0X0X0X0X0X0X0X0X0X0X0X0X0X0X0X0X0X0X0X0X0X0X0X0X0X0X0X0X0X0X0X0X0X0X0X0X0X0X0X@.",
"&.0X0X0X0X0X0X0X0X{.{.0X0X0X0X0X0X0X0X0X(.B.;X0X0X0X0X0X0X0X0X.X(.0X0X0X0X0X0X0X0X&.",
"@.0X0X0X0X0X0X0Xf.% + q.0X0X0X0X0X0X0X0X( % Y.0X0X0X0X0X0X0Xv.+ + &.9X0X0X0X0X0X0X@.",
"@.0X0X0X0X0X0XoX+ n K + ).0X0X0X0X0X0X0XX.+ !.0X9X0X0X0X0X,Xp 8 L + H.0X9X0X0X0X0X&.",
"=.0X0X0X0X0X0X$X; < d % (.0X0X0X0X0X0X0XX.+ !.0X0X0X0X0X0X,Xd + A + P.0X0X0X0X0X0X&.",
"@.0X0X0X0X0X0X0Xm.d p f.0X0X0X0X0X0X0X0XX.+ !.0X9X0X9X0X0X0XP.T A u.0X0X0X0X0X0X0X&.",
"&.9X0X0X0X0X,X{.{.B.N.)..X3X0X0X0X0X0X0X@.+ !.0X0X0X0X0X{.(.{.B.m.(.).(.3X0X0X0X0X&.",
"@.0X0X9X0X{.R + + 8 d + + ( .X0X0X0X0X0XX.+ !.0X9X0X9X1.+ + + + < + % + W .X0X0X0X&.",
"&.0X0X0X3X( + p A 4 8 n 8 + U 3X0X0X0X0XX.+ !.0X9X0Xv.+ < n n p p z n 4 + @.0X0X0X&.",
"&.0X0X0X).+ ( ~ ; d p ; W _ + P.0X0X0X0XX.+ !.0X0X0X=.+ &.J 2 d p p < X.W ; ;X0X0X&.",
"&.0X0X0Xv.+ !.j.+ A n + u.{.+ r.0X0X0X0XX.+ !.0X0X0X:.J ,X} + z p n + .Xf.+ ;X0X0X&.",
"@.0X0X0X` 4 ;X} + n s + W ,XW U 3X0X0X0X@.+ !.0X9X0X=.A ,XX.+ z 8 n + .Xi.+ ;X0X0X&.",
"@.0X0XoX+ 9.@X+ z r r n + {.j.+ {.0X0X0XX.+ (.0X0X0X=.J 3X} + z d n + .Xi.+ ;X0X0X&.",
"&.0X0XB.% P.H.+ A d 8 G + B.(.+ z.0X0X0X@.+ (.0X0X0X:.n ,X} + z 8 z + .Xi.+ ;X0X0X&.",
"@.0X0X1.+ ,X8.+ V e 5 z + :.;X2 } 9X0X0XX.+ Y.0X0X0X:.n 3X} + z p A + {.f.+ ;X0X0X&.",
"@.0X3X; ` ;XI % p p s d 8 < ,X6.% $X0X9XX.+ !.0X0X0X=.L ,X} + A z z + oXf.+ ,X0X0X&.",
"&.0X0XB.oX).+ A p 8 8 8 A + Y.;XN.0X0X0X@.+ !.0X0X0XX.% ,XX.+ + % n + oXu.+ ;X0X0X&.",
"@.0X0X0X0Xf.+ C 6 p p p A + q.0X0X0X0X0XX.% (.9X9X0XP.N.0X` + =.q.+ + .X{.z.0X0X0X&.",
"@.0X0X0X0X@.+ A e z k 8 z 8 _ 9X0X0X0X0XX.+ !.0X0X0X0X0X0X} + m.oX+ + ).0X0X0X0X0X&.",
"@.0X0X0X.X% + + d # + z + + + (.0X0X0X0XX.+ !.0X0X0X0X0X0X` + v.{.+ + ).0X0X0X0X0X&.",
"&.0X0X0X;XA.!.8.- a.z.+ :.!.H.$X0X0X0X0XX.+ !.0X0X0X0X0X0X} + v.{.+ + ).0X0X0X0X0X&.",
"@.0X0X0X0X0X0Xm.+ P.).+ i.0X0X0X0X0X0X0XX.+ !.0X0X0X0X0X0X` + v.{.+ + {.0X0X0X0X0X&.",
"&.9X0X0X0X9X0Xz.# H.Y.+ r.0X0X0X0X0X0X0XX.+ !.0X0X0X0X0X0X` + v..X+ + {.0X0X0X0X0X&.",
"@.0X0X0X0X0X0Xz.+ H.(.+ u.0X0X0X0X0X0X0XX.+ !.0X0X0X0X0X0X} + z..X+ + {.0X0X0X0X0X&.",
"&.0X0X0X0X9X0Xz.+ H.!.+ r.0X0X0X0X0X0X0X@.+ !.0X0X0X0X0X0X} + v..X+ + {.0X0X0X0X0X&.",
"&.0X0X0X0X0X0Xz.+ H.(.+ u.0X0X0X0X0X0X0X@.+ !.0X0X0X0X0X0X} + v..X+ + {.0X0X0X0X0X&.",
"@.0X0X0X0X0X0Xz.+ H.(.+ u.0X0X0X0X0X0X0X@.+ !.0X0X0X0X0X0X} + v..X+ + {.0X0X0X0X0X&.",
"@.0X0X0X0X0X0Xv.+ P.!.+ u.0X0X0X9X0X0X0X&.+ !.0X0X0X0X0X0X} + z.{.+ + {.0X0X0X0X0X=.",
"&.0X0X0X0X0X0Xz.% H.!.% r.9X0X0X0X0X0X9X( % Y.0X0X0X0X0X0XX.+ m.oX+ % .X0X0X0X0X0XX.",
"@.0X0X0X0X0X0X;Xf.,X0Xj..X0X0X0X0X0X0X0Xm.9..X0X0X0X0X0X0X{.v.,X0XA.B.0X0X0X0X0X0X&.",
"&.0X0X0X0X0X0X0X0X0X0X0X0X0X0X0X0X0X0X0X0X0X0X0X0X0X0X0X0X0X0X0X0X0X0X0X0X0X0X0X0X@.",
"@.0X0X0X0X0X0X0X0X0X0X0X0X0X0X0X0X0X0X0X0X0X0X0X0X0X0X0X0X0X0X0X0X9X9X0X0X0X0X0X0X&.",
"=.0X0X0X0X0X0X0X0X0X0X0X0X9X0X0X0X0X0X0X0X0X0X0X0X0X0X0X0X0X0X0X0X0X0X0X0X0X0X0X0X@.",
"1..X0X9X0X0X0X0X0X0X0X0X0X0X0X0X0X0X0X0X0X0X0X0X0X0X0X0X0X0X0X0X0X0X0X0X0X0X0X0X.X1.",
"Y.:.0X0X0X0X0X0X0X0X0X0X0X0X0X0X0X0X0X0X0X0X0X0X0X0X0X0X0X0X0X0X0X0X0X0X0X0X0X0X=.Y.",
"9Xz.=.{.9X0X0X0X0X0X0X0X0X0X0X0X0X0X0X0X0X0X0X0X0X0X0X0X0X0X0X0X9X0X0X0X0X0X.X&.z.0X",
"0X9XY.6.&.@.&.@.&.&.&.&.&.&.&.&.&.&.&.&.&.&.&.&.&.&.&.&.&.&.&.&.=.X.&.@.&.@.1.Y.0X0X"
};
