/* XPM */
static char *da2937cf6f7c42c0b2637a2be3c7680d6REY3XkUkWXooGL2[] = {
/* columns rows colors chars-per-pixel */
"42 42 210 2 ",
"   c #F1F1F1",
".  c #A8911A",
"X  c #CF9300",
"o  c #D39600",
"O  c #DA9E06",
"+  c #D69D15",
"@  c #D79818",
"#  c #D89C1A",
"$  c #D19215",
"%  c #D9A409",
"&  c #DDA412",
"*  c #DCA818",
"=  c #DCBA17",
"-  c #E7AE07",
";  c #E2A60D",
":  c #E2AB0C",
">  c #E8AD00",
",  c #EBB206",
"<  c #EDBD03",
"1  c #E6B509",
"2  c #ECB40C",
"3  c #E9BB0D",
"4  c #E7B80B",
"5  c #F2BA00",
"6  c #FCB900",
"7  c #E1AB15",
"8  c #F2AB14",
"9  c #E4B311",
"0  c #E5BB11",
"q  c #EBBD12",
"w  c #E7B41E",
"e  c #FAB515",
"r  c #F3BF19",
"t  c #DAA920",
"y  c #D0A73E",
"u  c #D2B931",
"i  c #FABF21",
"p  c #E5BC3B",
"a  c #EABB39",
"s  c #F0BC39",
"d  c #DAC01A",
"f  c #E5C206",
"g  c #ECC403",
"h  c #EAC30C",
"j  c #E8C509",
"k  c #FFC503",
"l  c #F3CD0E",
"z  c #F8C706",
"x  c #E5C215",
"c  c #EAC315",
"v  c #EBC51A",
"b  c #F1CB19",
"n  c #F0D31D",
"m  c #ECC62B",
"M  c #EEC92E",
"N  c #ECC621",
"B  c #F0C620",
"V  c #FEC128",
"C  c #FAC828",
"Z  c #F4D424",
"A  c #F7D52D",
"S  c #FFD62B",
"D  c #FEDB2E",
"F  c #FAD322",
"G  c #EFCC33",
"H  c #F3CA32",
"J  c #FDCC34",
"K  c #F9C33B",
"L  c #F9CB3C",
"P  c #FED335",
"I  c #FDDB34",
"U  c #FFD53C",
"Y  c #FDDD3A",
"T  c #FFE42B",
"R  c #FFE334",
"E  c #FFEF3F",
"W  c #9E886D",
"Q  c #D2B350",
"!  c #ECBB4A",
"~  c #E2BA54",
"^  c #E1B754",
"/  c #C89E6C",
"(  c #CCA768",
")  c #C2A57A",
"_  c #C6A97E",
"`  c #C9AB7E",
"'  c #D0AB7C",
"]  c #E5BE66",
"[  c #E2BE78",
"{  c #EDC147",
"}  c #F8CE40",
"|  c #FFCF48",
" . c #F4CC48",
".. c #F5D243",
"X. c #FFD642",
"o. c #FDDD45",
"O. c #F7D54B",
"+. c #FFDB4C",
"@. c #EFC550",
"#. c #ECCE5C",
"$. c #F3CA5D",
"%. c #FFD650",
"&. c #FDDD52",
"*. c #FCDD5D",
"=. c #F4D75D",
"-. c #FEE34B",
";. c #FFEB4C",
":. c #FEE641",
">. c #FFF549",
",. c #FEE356",
"<. c #FFEC5B",
"1. c #FEE557",
"2. c #EEC669",
"3. c #F2CE60",
"4. c #EED068",
"5. c #FEDF62",
"6. c #EFC973",
"7. c #F1CC73",
"8. c #FDD871",
"9. c #F8D77B",
"0. c #FFE263",
"q. c #FDE46C",
"w. c #FFEF6E",
"e. c #FFEC62",
"r. c #FFF463",
"t. c #FFFB63",
"y. c #FCE27D",
"u. c #C6AB81",
"i. c #CAAE84",
"p. c #C8AF8B",
"a. c #CDB286",
"s. c #CDB38A",
"d. c #D3B386",
"f. c #D3B68C",
"g. c #DAB58A",
"h. c #D4B98D",
"j. c #D9B783",
"k. c #D6BB92",
"l. c #D9BE94",
"z. c #D4BC9A",
"x. c #DABE98",
"c. c #DBC297",
"v. c #DDC49C",
"b. c #D7C09B",
"n. c #E7C58B",
"m. c #FCDC8A",
"M. c #FBDE86",
"N. c #E6C790",
"B. c #EACD95",
"V. c #E1C69D",
"C. c #E5CB9C",
"Z. c #E9CF98",
"A. c #EAD19C",
"S. c #F6D593",
"D. c #FADD94",
"F. c #FFE184",
"G. c #FBE294",
"H. c #DDC6A2",
"J. c #DFC8A3",
"K. c #DFC7A9",
"L. c #DFC8AC",
"P. c #E4CAA3",
"I. c #E9CDA5",
"U. c #E0C7A9",
"Y. c #E4CCAA",
"T. c #E9CFA8",
"R. c #EAD1A5",
"E. c #EBD1AE",
"W. c #F3D7A5",
"Q. c #F1D4AD",
"!. c #F8DDAB",
"~. c #E4CDB2",
"^. c #E7D1B4",
"/. c #ECD5B5",
"(. c #E7D3BA",
"). c #EBD6BB",
"_. c #EED9BB",
"`. c #F0D6B3",
"'. c #F3D9B5",
"]. c #F4DDBB",
"[. c #F9DEB7",
"{. c #FBE7A7",
"}. c #F8E1AD",
"|. c #FFE7B3",
" X c #F6E0BF",
".X c #FBE3BE",
"XX c #FFEBBF",
"oX c #EEDDC4",
"OX c #F2DDC2",
"+X c #F0DFC8",
"@X c #F4E2C5",
"#X c #FAE5C4",
"$X c #FFE9C5",
"%X c #F4E3CC",
"&X c #F9E6C9",
"*X c #F7E8CF",
"=X c #FEEACA",
"-X c #F3E6D1",
";X c #F6EAD6",
":X c #FDEDD5",
">X c #F7ECDA",
",X c #F9EFDC",
"<X c #FFF3D3",
"1X c #FCF1DB",
"2X c #FFFBDF",
"3X c #FAF2E0",
"4X c #FBF5E6",
"5X c #FCF4E2",
"6X c #FFFFE8",
"7X c #FDF7E6",
/* pixels */
"                          +X                                                        ",
"                      ).:X1X6X-X                                                    ",
"                      =X%X,X3X:X                                                    ",
"                    ^./.%X,X5X7XoX                                                  ",
"                    )./.%X,X4X5XoX                                                  ",
"                  (.`./.%X1X4X5XoX                                                  ",
"                  (.E./.%X>X4X5XoX                                                  ",
"                  ~.Y./.%X>X4X3XoX                                                  ",
"                  ~.H.).%X>X4X1X+X                                                  ",
"                  ~.v./.%X>X3X,X%X                                                  ",
"                  Y.x.^.%X;X,X,X:X                                                  ",
"                  Y.k.Y.OX-X>X,X1X).                                                ",
"                  Y.h.P._.%X;X,X:X).                                                ",
"                  U.f.v.^.+X-X>X:X).            ;X:X1X:X                            ",
"                  K.d.x.Y.OX%X;X-X).        >X1X<X=X<X2X<X&X                        ",
"                  L.d.h.V./.%X-X%X#X      W.|.!.#X#X#X#X#X<X&X                      ",
"                  Y.d.' l.Y._.%X%X.XH.  X.g   { 6.S.XX&X#X.X=X#X                    ",
"                  ~.g.( d.V./.%X@XU.j.C k !         @.S.$X@X].=X#X                  ",
"                    g./ j.I.Q.'._.p.s 6 e a             7..XOXQ.$X].                ",
"                  ;X%X@X%X!.8.C.z.( 6 8 6 !               2.'./.T.[.                ",
"            -X%X*X*X%X_.].$.< 3.W y k e V 7.                ] /.E.Q./.              ",
"        oX&X X]._././.U.!.a 7 q Q p z i K m.                  [ ~.P.[.              ",
"      v.T.P.H.Y.Y.P.P.H.W.% + + w P U C K 8.}.                  n.Y.P.E.            ",
"      x.c.v.c.V.V.v.v.H.A.X $ O > L 0.U C K F.                  ~ C.J.Q.`.          ",
"      h.x.c.l.v.v.v.J.H.B.o @ ; , r *.*.S J L m.                  ^ V.H.T.          ",
"      f.h.x.x.v.v.v.v.v.B.o # ; 2 5 H 5.&.S J | D.                  ~ N.`.          ",
"      f.k.l.f.l.c.v.c.b.Z.O # & - 2 5 L 0.+.S J %.G.                  @.9.A.        ",
"      a.f.k.h.x.c.v.v.z.Z.t + & : , q < ..0.o.D P +.m.                              ",
"      f.d.f.h.l.c.v.v.k.A.p * & : - 2 q < } ,.-.I P X.y.{.                          ",
"        h.a.h.l.c.c.c.k.C.4.a * 7 : , 4 q < H &.,.Y I P 0.M.                        ",
"        a.i.f.f.x.x.c.f.C.  #.m 9 9 1 1 3 q < v O.,.-.Y S Y 0.9.G.                  ",
"        s.a.a.a.l.l.x.f.R.    =.B 0 0 1 4 3 q 3 g M O.&.o.Y D D ;.<.q.y.            ",
"        f.h.i.i.f.h.l.a.R.      =.F h q 3 3 0 q q < h M ..O.o.Y Y I Y R E u         ",
"          d.u._ a.h.l.s.R.        *.T l b c h 3 q q c h c N M G G H G m v n .       ",
"          i.` _ a.f.k.a.I.          q.:.T I A b g h c c c c v v v x x = x d         ",
"          s.f._ _ s.f.i.P.              1.>.;.-.Y Z l g g j h j f f 0 b =           ",
"            i._ ) i.a.i.P.                  e.t.t.<.-.:.I A Z Z D R Z x             ",
"            a.d.) _ a.u.V.                      w.r.r.t.t.t.r.<.<.;.                ",
"              u.u.) a.i.v.                                                          ",
"                d.) u.a.H.                                                          ",
"                  i.a.v.                                                            ",
"                    s.                                                              "
};
