/* XPM */
static char *_776bc94fc6d4e44c8e82a4a796ae343qxxOqWUJ3xqkIIng[] = {
/* columns rows colors chars-per-pixel */
"42 42 116 2 ",
"   c #010101",
".  c #0C0B03",
"X  c #060508",
"o  c #0C0C0C",
"O  c #13130E",
"+  c #19190F",
"@  c #131313",
"#  c #1F1F15",
"$  c #1B1B1B",
"%  c #22211D",
"&  c #2B2B1F",
"*  c #1E1E20",
"=  c #242324",
"-  c #282924",
";  c #272729",
":  c #2B2B2B",
">  c #2E2E30",
",  c #323233",
"<  c #393833",
"1  c #373739",
"2  c #3B3B3B",
"3  c #44453F",
"4  c #535337",
"5  c #54543A",
"6  c #595A38",
"7  c #3F3F41",
"8  c #434344",
"9  c #474749",
"0  c #4B4B4B",
"q  c #525253",
"w  c #5A5A5B",
"e  c #646546",
"r  c #717252",
"t  c #5E5E60",
"y  c #636364",
"u  c #6A6A6A",
"i  c #747474",
"p  c #7D7D7D",
"a  c #82845F",
"s  c #838383",
"d  c gray55",
"f  c #939393",
"g  c #9A9A9B",
"h  c #A0A0A0",
"j  c #ACACAC",
"k  c #B4B4B4",
"l  c #BCBCBC",
"z  c #D5D6AC",
"x  c #BDBCC1",
"c  c #C4C4C4",
"v  c #C7C7C9",
"b  c #C8C8C8",
"n  c #CACACA",
"m  c #CDCDCD",
"M  c #CECECE",
"N  c #CECED0",
"B  c #D0D0D0",
"V  c #D2D2D2",
"C  c #D5D5D5",
"Z  c #D6D6D8",
"A  c #D8D8D8",
"S  c gray85",
"D  c gainsboro",
"F  c #DDDDDD",
"G  c gray87",
"H  c gray85",
"J  c #DFDFE1",
"K  c gray88",
"L  c #E1E1E1",
"P  c #E3E2E7",
"I  c #E7E7E7",
"U  c gray88",
"Y  c #E6E6E8",
"T  c #E9E9E9",
"R  c #EDEDEF",
"E  c #EEEEEE",
"W  c #EFEFEF",
"Q  c #EEEEF0",
"!  c #F4F4F4",
"~  c #F6F6F6",
"^  c #F6F6F6",
"/  c #FAFCF7",
"(  c #FCFDF7",
")  c #F7F6FB",
"_  c #F8F8F8",
"`  c #F9F9F9",
"'  c #F9F9FB",
"]  c gray98",
"[  c #FBFBFB",
"{  c #FDFEF9",
"}  c #FCFCFA",
"|  c #FDFDFB",
" . c #FDFFFA",
".. c #FFFFFA",
"X. c #FEFFFB",
"o. c #FFFFFB",
"O. c #FBFBFD",
"+. c #FBFAFF",
"@. c #FCFBFF",
"#. c gray99",
"$. c #FDFDFD",
"%. c #FDFFFC",
"&. c #FEFEFC",
"*. c #FEFFFD",
"=. c #FFFFFD",
"-. c #FCFCFE",
";. c #FDFCFF",
":. c #FDFDFF",
">. c #FEFDFF",
",. c #FDFFFE",
"<. c #FEFEFE",
"1. c #FEFEFF",
"2. c #FFFEFF",
"3. c #FEFFFF",
"4. c #F1F1F1",
"5. c #FEFEFE",
/* pixels */
"4.4.4.4.4.4.4.4.4.4.4.4.4.4.4.4.} 4.4.4.4.4.4.4.T 4.4.4.4.4.4.4.( } } 4.4.4.4.4.4.4.",
"4.4.4.4.4.4.4.4.4.4.4.4.4.4.4.4.4.4.} 4.4.4.4.c X p [ 4.4.4.4.4.} } 4.4.4.4.O.4.4.4.",
"4.4.4.4.4.4.4.4.4.4.4.4.4.4.4.4.4.4.4.4.4.4.L   o   k 4.} 4.[ 4.} 4.4.4.4.4.4.4.4.4.",
"4.4.4.4.4.4.4.4.4.4.4.4.4.4.4.4.} 4.4.4.4.[ w   =   u [ 4.[ 4.4.4.4.4.4.4.4.4.4.4.4.",
"4.4.4.4.4.4.4.4.4.4.4.4.4.4.4.4.4.4.4.[ 4.n   =   @   D 4.[ 4.4.4.) 4.O.4.4.4.} 4.4.",
"4.4.4.4.4.4.4.4.4.4.4.4.4.4.4.4.4.[ 4.4.~ i   = = @   p E 4.4.Q g x 4.4.4.4.} 4.4.4.",
"4.4.4.4.4.4.4.4.4.4.4.4.4.4.4.4.4.4.4.c y $ o o , o @   9 f p : X x 4.[ 4./ } 4.4.4.",
"4.4.4.4.4.4.4.4.4.4.4.4.4.4.4.4.4.L s   = 8     $ $   $     : 9   v 4.4.4.} 4.4.4.4.",
"4.4.4.4.4.4.4.4.[ 4.4.4.4.4.4.4.j =   $ 2 8 1 = * o     X 8 1 : @ p T 4.[ 4.4.4.4.4.",
"4.4.4.4.4.4.4.4.4.4.4.[ 4.4.4.g X : @   ; 9 2 @ X     X o $ X   O   , D 4.4.4.4.4.4.",
"4.4.4.4.4.4.4.4.4.4.4.4.4.4.c   :   X     2 ,                     %   = S 4.[ 4.4.4.",
"4.4.4.4.4.4.4.4.4.4.4.4.4.D = $   X X   > 1     X         X     . O + O   N 4.@.4.4.",
"4.4.4.4.4.4.4.4.4.4.[ 4.L 9   o         : o                   .     . + =   P 4.4.4.",
"4.4.4.4.4.4.4.4.4.4.4.C q   @   X     @ =                   o   5 e     <   l 4.4.4.",
"4.4.4.4.4.4.4.4.4.4.l 2 : X           @ $                   O   6 z r   &   Z 4.4.4.",
"4.4.4.4.4.4.4.4.~ f $ 0 X             X =   X         X       .   a 4   #   B 4.4.4.",
"[ 4.4.4.4.4.O.Y w , w X           X   X = $       X o :         .   . 3 -   h 4.[ 4.",
"4.4.4.4.O.4.L , 0 w o   X               X : $   X   $ 8 @         $   = :   2 E 4.[ ",
"4.4.4.4.4.Q 8 9 y :   o                   X $       o : $                 $   j 4.4.",
"4.[ 4.4.4.f X y 9   X                 X       @ $ $ = $ = = @ @ @ X         o X D 4.",
"4.4.4.4.S   q t :   X                   X   o @ @ @ @ @ @ @ = = : : @ X     $   i 4.",
"4.4.[ ) y : 0 w ;                                   o o o o @ = , , = X       =   B ",
"4.4.4.f   9 7 q 7   o         X               X @ $ @ @ $ $ = : : : o X     X :   f ",
"4.4.l   0 8 8 , =                             o o   X @ = o   o               1   n ",
"4.T = 9 1 : @                                     X o @ , 8 , ,   X         :   k 4.",
"4.g X ,         X                               o     $ 9 = , 8 : @       : @ 8 [ 4.",
"I : o                                           o = : @ $ h i X : = : : 1 =   M 4.4.",
"k   = X                                           X = 8 X j 4.h X $ = : o 8 D 4.4.4.",
"s   $   X                                             @ 1 2 E 4.j         B 4.4.4.4.",
"0   @                         $                     X   = o s 4.4.c i u c 4.4.4.4.4.",
"$   X                       $ :                       X   ,   S 4.[ 4.4.4.4.4.4.4.4.",
"=                       X   , :                         X $   k 4.4.4.4.4.4.4.4.4.4.",
"$                         @ 2 $                           @   w ~ 4.4.4.4.4.[ 4.4.4.",
"$                         = 8 $                             $   d [ 4.4.4.4.4.4.4.4.",
"$                         , 8 @                               =   g 4.4.4.4.4.4.4.4.",
"$                         1 8 $                               X 1   j 4.4.4.4.4.4.4.",
"$                         1 8 =                                 : : X M 4.4.4.4.4.4.",
"$                         1 8 ,                                 : ,   1 L 4.4.4.4.4.",
"$                         , 8 2 X                         X     = , X   q E 4.4.4.4.",
"1 = = = = = = = = = = = = 2 0 9 , = = = = = = = = = = = = = = $ 2 8 $ ,   d 4.4.4.4.",
"                                                                          X l 4.4.4.",
"k j j k k k k l l l k k k k l l l l l l l l l l l l l l l l l l c l l l l l M 4.4.4."
};
