/* XPM */
static char *_e6128849b2f4965b22a1a7c50bfaa11unJOzkcq99xGQKdH[] = {
/* columns rows colors chars-per-pixel */
"42 42 222 2 ",
"   c #00004E",
".  c #000457",
"X  c #000164",
"o  c #00066C",
"O  c #001766",
"+  c #001B69",
"@  c #000572",
"#  c #001A72",
"$  c #00226B",
"%  c #002B6D",
"&  c #142B63",
"*  c #0D326F",
"=  c #183568",
"-  c #002577",
";  c #002C72",
":  c #002A7B",
">  c #073673",
",  c #003474",
"<  c #00367C",
"1  c #013B79",
"2  c #123B75",
"3  c #153B74",
"4  c #1A3D74",
"5  c #133F79",
"6  c #233E6F",
"7  c #07417D",
"8  c #14427C",
"9  c #1D4378",
"0  c #1B447C",
"q  c #274577",
"w  c #334B7A",
"e  c #34517D",
"r  c #3A537D",
"t  c #505579",
"y  c #56627E",
"u  c #003C84",
"i  c #00388A",
"p  c #014385",
"a  c #064987",
"s  c #004C8B",
"d  c #144A85",
"f  c #174A84",
"g  c #1C4B84",
"h  c #02538B",
"j  c #15518B",
"k  c #1C528B",
"l  c #004D96",
"z  c #015B96",
"x  c #045896",
"c  c #1B5B95",
"v  c #244D84",
"b  c #294D80",
"n  c #23538B",
"m  c #295589",
"M  c #2A5A8E",
"N  c #3B5583",
"B  c #3C5886",
"V  c #365A8B",
"C  c #255B92",
"Z  c #275B94",
"A  c #2B5C93",
"S  c #305D94",
"D  c #00609B",
"F  c #19619A",
"G  c #3B618B",
"H  c #286398",
"J  c #2B649B",
"K  c #3D6594",
"L  c #366599",
"P  c #0F6EAA",
"I  c #276BAA",
"U  c #366BA5",
"Y  c #3371A2",
"T  c #3C75AA",
"R  c #3C7EB6",
"E  c #465C83",
"W  c #465C85",
"Q  c #515E82",
"!  c #45638B",
"~  c #4A658C",
"^  c #536385",
"/  c #53678B",
"(  c #416995",
")  c #436D9C",
"_  c #566C93",
"`  c #4A719F",
"'  c #51729D",
"]  c #697897",
"[  c #416DA1",
"{  c #4B75A3",
"}  c #4274A8",
"|  c #4D7CAC",
" . c #587CA6",
".. c #457BB7",
"X. c #4C7DB3",
"o. c #3D87B8",
"O. c #75819B",
"+. c #4788BB",
"@. c #5987B6",
"#. c #4F90BD",
"$. c #5893BD",
"%. c #7988A5",
"&. c #6E90B3",
"*. c #7E9BBE",
"=. c #5BABBE",
"-. c #60AEBF",
";. c #3E88C3",
":. c #4287C1",
">. c #458AC3",
",. c #4B8DC4",
"<. c #4589CC",
"1. c #4C8DCD",
"2. c #548DC4",
"3. c #558FCF",
"4. c #4B95C9",
"5. c #4F9ACB",
"6. c #5393C6",
"7. c #589AC6",
"8. c #5491CD",
"9. c #5A94CD",
"0. c #558FD1",
"q. c #5593D1",
"w. c #5B94D1",
"e. c #5A9AD8",
"r. c #6395C4",
"t. c #679AC6",
"y. c #6399CB",
"u. c #6B9ACB",
"i. c #759DCA",
"p. c #6397D2",
"a. c #6599D3",
"s. c #6A9AD3",
"d. c #5AA2C6",
"f. c #4FA0D4",
"g. c #56A5DB",
"h. c #73AFC8",
"j. c #68A3D7",
"k. c #76A4D6",
"l. c #5AA8E7",
"z. c #68AEE4",
"x. c #75B8E8",
"c. c #75C4EE",
"v. c #78CAF2",
"b. c #7BD8F7",
"n. c #7FE1FB",
"m. c #808CA6",
"M. c #8D95A9",
"N. c #889BB7",
"B. c #99A5BA",
"V. c #A0ABBE",
"C. c #87A5C6",
"Z. c #93A9C4",
"A. c #86ABD6",
"S. c #84ABD9",
"D. c #8EB0D5",
"F. c #8DB3DD",
"G. c #94B4DA",
"H. c #A9B4C6",
"J. c #B3BDCC",
"K. c #A9B9D0",
"L. c #81B7E6",
"P. c #96BCE2",
"I. c #AFC2CF",
"U. c #A5C5D5",
"Y. c #A8CBDD",
"T. c #B8C7D9",
"R. c #9FC2E4",
"E. c #A7C5E5",
"W. c #B7CDE9",
"Q. c #ABD1E5",
"!. c #B6D4E5",
"~. c #BAD5E5",
"^. c #B9D5EA",
"/. c #BED9ED",
"(. c #BEDDF1",
"). c #82EAFD",
"_. c #85F5FF",
"`. c #95F3FA",
"'. c #BFE0F5",
"]. c #C9CECE",
"[. c #CAD2DB",
"{. c #D6DBDB",
"}. c #D6DADD",
"|. c #C0CFE3",
" X c #C3DCE6",
".X c #CADAE4",
"XX c #C6DBEB",
"oX c #D5DBE4",
"OX c #C1DEF2",
"+X c #CBDFF1",
"@X c #CEE0EF",
"#X c #DDE3E6",
"$X c #DDE4EC",
"%X c #C3E0F4",
"&X c #CBE4F4",
"*X c #C5EAFA",
"=X c #D1E6F4",
"-X c #D4E9F6",
";X c #DAEBF7",
":X c #D3ECFA",
">X c #DAECF8",
",X c #DEEEF8",
"<X c #E4E7E7",
"1X c #E7EAEA",
"2X c #EBEDED",
"3X c #EBEEEE",
"4X c #E3EAF2",
"5X c #E1EFF8",
"6X c #EFF0F0",
"7X c #EEF0F3",
"8X c #E3F2FA",
"9X c #E6F2FA",
"0X c #E8F3FA",
"qX c #EAF5FB",
"wX c #E6FFFF",
"eX c #ECFCFF",
"rX c #F1F4F4",
"tX c #F3F5F5",
"yX c #F5F6F6",
"uX c #F6F7F8",
"iX c #F5F8FA",
"pX c white",
/* pixels */
"#XyXtXtXtXtXtXtXtXtXtXtXtXtXtXtXtXtXtXtXtXtXtXtXtXtXtXtXtXtXtXtXtXtXtXtXtXtXtXtXyX<X",
"2XpXpXpXpXpXpXpXpXpXpXpXpXpXpXpXpXpXpXpXpXpXpXpXpXpXpXpXpXpXpXpXpXpXpXpXpXpXpXpXpX2X",
"1XpXpXtX6X6X6X6X6X6X6X6X6X6X6XtX6X6X6X6X6X6X6X6X6X6X6X6X6X6X6X6X6X6X6X6XtX6XtXpXpX2X",
"1XpXuXU.U.U.U.U.U.U.U.U.U.U.U.U.U.U.U.U.U.U.U.U.U.U.U.U.U.U.U.U.U.U.U.U.U.U.U.uXpX2X",
"1XpXyX!.%X%X%X%X%X%X%X%X%X%X%X%X%X%X%X%X%X(.(.(.(.(.(.'.(.%X%X%X%X%X%X%X%X%X^.yXpX2X",
"1XpXyX!.(.(.(.(.(.(.(.(.(.(.(.(.OXOX(.(.(.%X%X%X%X%X%XOX%X(.(.(.(.(.(.(./.(.!.yXpX2X",
"1XpXyX!.OX(.(.(.(.(.OXOXOXOX%X%X&X&X&X%X&X^.E.E.P.P.F.S.F.(.OXOX(.(.(.(.(.OX!.yXpX2X",
"1XpXyX!.%XOXOXOXOXOXOX%X%X&X&X&X&X=X=X-X-Xk.i.w.0.0.0.w.;.Q.&XOXOXOXOXOXOX%X!.yXpX2X",
"1XpXyX!.%XOXOXOX%X%X%X%X&X&X=X-X-X;X;X,X;XF.6Xk.w.a.a.a.,.!.&X%X%XOXOXOXOX%X!.yXpX2X",
"1XpXyX!.&XOX%X%X%X%X&X&X=X-X;X,X,X5X8X9X8XS.F.s.p.p.p.a.,.^.-X&X&X&X&X&X&X&X/.yXpX2X",
"1XpXyX!.&X%X%X%X&X&X&X=X-X>X,X8X9X9X9X9X0XS.<.a.p.p.p.a.>./.>X/.^.W.E.E.R.P.D.tXpX2X",
"1XpXyX~.&X%X%X&X&X&X-X-X,X5X9X9X9X0X0X0X0XS.w.a.a.p.p.a.>.XX;Xa.<.<.0.3.3.0.r.tXpX2X",
"1XpXyX~.&X%X&X&X&X-X;X,X5X8X9X9X0X0X0XqXqXS.w.p.w.p.p.s.:.+X,Xq.T.|.1.s.a.a.u.tXpX2X",
"1XpXyX X&X&X&X=X-X;X,X5X9XeXiXiXiXiXqXqXqXS.9.u.i.p.p.s.:.+X8X8.E.W.1.s.p.p.u.tXpX2X",
"1XpXyX~././.%X&X-X>X,XqX$XN.*.C.C.C.;XqXqXA.;.E.4X1.s.s.:.@X9Xs.<.<.p.1.a.p.t.tXpX2X",
"1XpXyX&.i.C.i.i.XX8X5XeX.Xc N.x z i T.iX9XS.3.S.G.w.a.s.:.@X9Xq.K.T.A.|.9.p.t.tXpX2X",
"1XpXuXo..X.X,.r.XX8X5XeX.X&.4XJ { z Y.eXqXS.w.p.q.a.a.s.:.=XeXq.W.W.S.=Xq.a.t.tXpX2X",
"1XpXyX$.D.D.t.y.&XeXqXeX.Xx { J l F i.A.=XF.w.@.} T I } :.^.+Xa.8.8.w.8.p.w.t.tXpX2X",
"1XpXyXt.9.y.7.| C.Z.T.eX.XF #.L J. .r.9./.F.w.| x ) [.' 2.w.9.| c H J c U J ` tXpX2X",
"1XpXyXr.u.j.;.[ U l *.eX.XJ j.L oX .r.a.OXP.e.| c [ T.` 9.j.u.D H.J.&.oXl J ) tXpX2X",
"1XpXyXt.a.a.>.} X.U C.eX.Xs A H x C t.k.F.j.2.} k Z u c X.2.u.J N.Z. .J.x Z ) tXpX2X",
"1XpXyXr.9.y.+...X.I C.eX Xs J A A Z y.j.j.2.j C #.Y $.Y #.Z t.{ s h c p L c ( tXpX2X",
"1XpXyX@...........I C.wX Xs A Z A k u./.x.2.M S d.} 7.T d.A u.x J.[.i K A c ( tXpX2X",
"1XpXyX@...X.X.X.7.R A.eX Xp A C Z j u.:XL.2.p p u p n n k A r.J %.N.p A Z k K tXpX2X",
"1XpXyX! p M n n @.+.k.*X~.p C n C k y.z.x.>.%.H.B.B.u A n Z $.) u p M n n j K tXpX2X",
"1XpX2XT.H.: M n | @.1.z.Y.v k n k f y.x.x.;.%.T.H.H.: M k M @.K n M n M n j G tXpX2X",
"1XpX6XB.N.< k n { X.q.x.Y.g k k n f 7.x.x.6.1 p p p n k k n | L f n a u n a G tXpX2X",
"1XpXyXm : V W f K } e.x.Y.0 f m #X_ 6.c.c.6.5 n v v g g g n { M g a ! ] f f V tXpX2X",
"1XpXtX_ @ V.}.@ ! U g.c.Q.0 f v H.N 7.v.c.6.1 n g g g g v n K m b : N.$X: g B tXpX2X",
"1XpXyX~ : ] m.< e U l.c.Y.5 f 0 < ; 7.v.v.6.; 8 f f g 7 # g V b < - B _ f p B tXpX2X",
"1XpXtX! < h z 9 q L T G ! 0 8 f g.f 7.b.b.,.8 Y 8 0 8 W M.g m , ] O.B m.1 7 B tXpX2X",
"1XpXtX! + T 5.$ q 9 * 9 $ 1 0 8 Y ; 7.b.b.,.C f.> v o ] $Xf e . J.T.] $X# 0 N tXpX2X",
"1XpXtXW , 0 f 2 = 5 M 1 ] W 1 0 2 o d.n.b.5.$ g 8 1 ] B B 0 q 3 7 1 q W 5 1 N tXpX2X",
"1XpXtXW , 4 2 2 & 8 g.# oXB.X q 0 X d.).n.5.O 8 9 $ $X%.X b q X %.M.o 1 0 , r tXpX2X",
"1XpXtXE ; 4 2 2 = 2 n , / N % * 0 X =.).).5.X 0 * % ] w $ 0 q   H.I.. q 4 , r tXpX2X",
"1XpXtXE ; 4 2 * & 2 H , O.Q h M 2 X =._.).5.X * J H z k Y 8 = & , , 2 2 4 , e tXpX2X",
"1XpXyXE , 6 4 4 & 9 g.o oXM.P +.& X -._.).5.O & o.R >.Y 4.9 6 = 4 4 4 4 4 > r tXpX2X",
"1XpXtXw X $ $ + . + , + w * ; , % . =._._.4.  % $ $ $ $ + ; + . $ $ $ $ $ O 4 tXpX2X",
"1XpXuXO.E ^ ^ ^ y ^ ^ ^ E ^ ^ ^ / t h.`.`.h.t / ^ ^ ^ ^ ^ / y y ^ ^ ^ ^ ^ E ] uXpX2X",
"1XpXpXuXuXuXuXuXuXuXuXuXuXuXuXuXuXuXuXuXuXuXuXuXuXuXuXuXuXuXuXuXuXuXuXuXuXuXuXpXpX2X",
"2XpXpXpXpXpXpXpXpXpXpXpXpXpXpXpXpXpXpXpXpXpXpXpXpXpXpXpXpXpXpXpXpXpXpXpXpXpXpXpXpX6X",
"].}.{.{.{.{.{.{.{.{.{.{.{.{.{.{.{.{.{.{.{.{.{.{.{.{.{.{.{.{.{.{.{.{.{.{.{.{.{.{.}.]."
};
