/* XPM */
static char *_7f202773f904510c80ff15271957f55AhVNFLL2hEjDBS1v[] = {
/* columns rows colors chars-per-pixel */
"42 42 227 2 ",
"   c #F1F1F1",
".  c black",
"X  c #002C2D",
"o  c #013635",
"O  c #173234",
"+  c #2C3231",
"@  c #510F00",
"#  c #690907",
"$  c #6F2E12",
"%  c #76331A",
"&  c #453532",
"*  c #553031",
"=  c #723532",
"-  c #723232",
";  c #652614",
":  c #34561B",
">  c #2F4C18",
",  c #004836",
"<  c #08432D",
"1  c #375725",
"2  c #2A5636",
"3  c #346F30",
"4  c #765900",
"5  c #445431",
"6  c #7C422B",
"7  c #755332",
"8  c #436525",
"9  c #456C28",
"0  c #48782C",
"q  c #53772D",
"w  c #4B7734",
"e  c #507735",
"r  c #7D6039",
"t  c #766645",
"y  c #913F00",
"u  c #873918",
"i  c #831A20",
"p  c #AF112A",
"a  c #98312B",
"s  c #983734",
"d  c #88302C",
"f  c #A93A36",
"g  c #B13532",
"h  c #C62D28",
"j  c #D73938",
"k  c #D33333",
"l  c #D92829",
"z  c #934200",
"x  c #815C00",
"c  c #95730B",
"v  c #9C7A19",
"b  c #8F6D00",
"n  c #83452D",
"m  c #995D25",
"M  c #894934",
"N  c #845835",
"B  c #AA423A",
"V  c #B94638",
"C  c #A0402E",
"Z  c #86693A",
"A  c #94753D",
"S  c #9C612A",
"D  c #C6463C",
"F  c #D6443E",
"G  c #E6413C",
"H  c #F44E3E",
"J  c #975B41",
"K  c #8C574B",
"L  c #B84B41",
"P  c #A95843",
"I  c #BD5343",
"U  c #A14A41",
"Y  c #9C6646",
"T  c #98754B",
"R  c #9A745B",
"E  c #936B54",
"W  c #A2674F",
"Q  c #A6745B",
"!  c #AD7752",
"~  c #947D6B",
"^  c #86717C",
"/  c #8B706E",
"(  c #D64941",
")  c #CB5243",
"_  c #CF4D43",
"`  c #E85647",
"'  c #F75949",
"]  c #EF4B45",
"[  c #FD6550",
"{  c #C26854",
"}  c #4C8333",
"|  c #558232",
" . c #518A35",
".. c #548C3A",
"X. c #588735",
"o. c #56913B",
"O. c #5C963A",
"+. c #5D9A3C",
"@. c #579536",
"#. c #4F842C",
"$. c #64933A",
"%. c #639C3C",
"&. c #6B9B3C",
"*. c #66943B",
"=. c #5EA23E",
"-. c #64A33D",
";. c #6AA43E",
":. c #67A93F",
">. c #72A735",
",. c #5D9B41",
"<. c #649A42",
"1. c #71834F",
"2. c #5FA243",
"3. c #64A343",
"4. c #6BA344",
"5. c #65AB42",
"6. c #6CAB42",
"7. c #6DAD48",
"8. c #73AC44",
"9. c #7AAC44",
"0. c #76AA45",
"q. c #6AB245",
"w. c #74B346",
"e. c #75B34A",
"r. c #7BB54B",
"t. c #7CB94B",
"y. c #78B447",
"u. c #7EBB52",
"i. c #7BB656",
"p. c #7EC04C",
"a. c #81B938",
"s. c #C1923F",
"d. c #8D954F",
"f. c #A58A44",
"g. c #A5845B",
"h. c #B1845E",
"j. c #83B446",
"k. c #82BA4E",
"l. c #8CBC4C",
"z. c #86B647",
"x. c #83BC54",
"c. c #86B658",
"v. c #94B657",
"b. c #9E8166",
"n. c #928A7E",
"m. c #958876",
"M. c #8D867C",
"N. c #A28364",
"B. c #A6856A",
"V. c #A98769",
"C. c #B38866",
"Z. c #A68C74",
"A. c #AA8F75",
"S. c #A2927D",
"D. c #AB9277",
"F. c #B49174",
"G. c #DAB65E",
"H. c #CB9074",
"J. c #8AC24C",
"K. c #84C255",
"L. c #86C15B",
"P. c #8BC35A",
"I. c #8BC356",
"U. c #98C751",
"Y. c #94C648",
"T. c #A8C56A",
"R. c #8FCC61",
"E. c #8F7982",
"W. c #5EA9DF",
"Q. c #66A9D8",
"!. c #7AADD3",
"~. c #7EB6D9",
"^. c #79A2C7",
"/. c #66ADE2",
"(. c #7AB7E4",
"). c #4C9ACD",
"_. c #7ECDF6",
"`. c #93979C",
"'. c #94918D",
"]. c #AB9C92",
"[. c #AA9583",
"{. c #B8AE9E",
"}. c #B4AA99",
"|. c #BCB39A",
" X c #B3A28F",
".X c #8D9DB2",
"XX c #8B98AB",
"oX c #92A6BD",
"OX c #D7B18E",
"+X c #C8BB9A",
"@X c #D8BA97",
"#X c #C6A583",
"$X c #D0BDA1",
"%X c #D0C59D",
"&X c #E3C09B",
"*X c #CEC1A1",
"=X c #D4C3A4",
"-X c #D9C9A2",
";X c #DBC6AA",
":X c #DBC5A9",
">X c #EED7AD",
",X c #E4CEB1",
"<X c #ECDBB3",
"1X c #EAD7B4",
"2X c #F1DCB7",
"3X c #E9D1A9",
"4X c #F5E2BD",
"5X c #FBE4BD",
"6X c #FDE8BE",
"7X c #FFE1B5",
"8X c #EFE0BA",
"9X c #9AB2CC",
"0X c #81BDE7",
"qX c #89C5EB",
"wX c #94D3F5",
"eX c #95D9FC",
"rX c #89CEF4",
"tX c #9AE1FF",
"yX c #FCE5C1",
"uX c #FDECC4",
"iX c #FFEDC9",
"pX c #F7E1C1",
"aX c #FEF0C6",
"sX c #FEF3CB",
"dX c #FFF9CF",
"fX c #FFF5D0",
"gX c #FFFBD2",
/* pixels */
"                                                                                    ",
"                                                                                    ",
"                      x.x.P.x.P.P.t.x.x.x.                                          ",
"                  c.x.K.K.K.P.x.x.x.t.t.u.K.K.                                      ",
"              c.x.P.x.L.L.L.P.R.P.t.t.x.u.P.x.t.y.                                  ",
"              r.e.t.u.x.K.K.7.u.x.k.k.y.-.6.k.y.k.K.8.                              ",
"            i.x.u.6.t.t.e.-.-.:.8.t.I.I.K.y.y.4.y.y.p.6.                            ",
"        c.L.L.K.t.6.;.;.-.w.w.w.w.9.z.l.z.I.x.4.y.0.6.-.                            ",
"      c.x.i.u.7.;.w.w.w.w.w.6.5.5.q.e.e.8.7.y.4.%.8.0.$.                            ",
"      e.O.4.%.-.;.6.y.-.r.t.y.5.d.f.f.f.f.d.&.$.%.| 3 3  .                          ",
"    e.4.3.7.-.;.6.6.6.8.8.k.k.q.! j F j k p 9 #.e , f L < 2                         ",
"    4.%.3.3.+.O.8.y.y.r.y.8.8.5.g.D V V V d > 2 O V ' [ ) & <                       ",
"  4.3.3.3.=.-.6.6.8.8.y.t.w.;.@.T V V f a d , & ( ' ) h H ` = X                     ",
"  4.<.3.2.3.5.:.6.8.%.w.t.8.w.=.T g C a d O = ` ' I Q @XH.G ` M X                   ",
"  <.| ,.2.o.@.:.6.O.%.-.;.;.y.5.T a d = O s ' ` P F.4XgXuXH.l ' B X                 ",
"  ..o. .} 0  .O.#.0 %.:.8.6.O.%.E i * o B ' ` P #XaXgXsXsXaXOXj ] L O o             ",
"   .+.O. .o.+.o.0 3 +.5.e.7.+.} t * + D ] ) Y OXsXgXsXsXaXaXaX&XD G _ *             ",
"   .,.,.,.o.+.,...0 o.3.3.=.O.e 2 * F ] I Q 3XgXsXaXaXaXaXaXuXuX3X{ l ( = X         ",
"    o.+.,. . .,.o.0 ..o.o.@.w , - F ( P C.<XgXaXaXaXuXuXuXuXuX6X6X>XH.h F s X       ",
"    1 e | 9 9 .. .> w o.o.w o s G ( P H.6XgXsXaXaXaXaXuXuXuXuXuX6X6X7XH.p j s X     ",
"        8 q 9 8 9 > 1 } } 5 g j _ W OXuXsXaXaXaXuXuXuXuXuXuXuX6X6X6X5X7XOXg h f &   ",
"          q 9 8 : : : 8 3 N j V Q @XaXsXaXaXaXaXuXuXuXuXuXuXuXyXyX6X5X5X6X&XU k g   ",
"                    1 : > : @ R >XsXaXuXuXuXuXuXuXuXuXuXuXyXyXyXyX4X5X5X4XuXZ.#     ",
"                            . |.gXuXaXaXaXaXaXaXaXaXuXuXiXiXiXiXiXiXuXuXyXuX        ",
"                            . |.gXuX4X4X4X4X4X4X8X1XyXuX2X<X>X<X>X>X>X1X2XiX        ",
"                            @ }.sX4XF.Y S m m m R B.,XyXF.'.`.`.`.`.`.Z. XyXS.      ",
"                            x +XfXyXC.K .X.X.XXXW B.;XyXD.qXeXeXeXrXwX}.Z.yXS.      ",
"                            b +XfXyXC.E.tXtXtXwXQ B.;XyXD.~.wXqXqXqXqX].Z.yXS.      ",
"                            v %XsXyXC.^ wXwXwXqXQ N.;XyXA.!.qX0X0X(.0X].Z.pXS.      ",
"                          7 v -XfXyXh.^ _.rX_.(.R N.;XyXA.Q.(.(.(.(.(.].A.pXS.      ",
"                          r v -XfXpXC./ ~.!.!.^.E N.;XyXZ.)./.Q./.W./.].D.pXS.      ",
"                          r v -XfX4XV.u z y z y J b.;XyXD.oX9X9X9X9X9X[.Z.,Xm.      ",
"                          Z c =XsX4XV.u M M M - J b.;X4XA.N.N.N.g.g.g.d.v.T.v.      ",
"                          Z c =XsX4XV.% M n M G.! ~ :XuX,X=X=X=X=X|.v.U.U.Y.z.z.    ",
"                          Z c =XsX4XB.% n n n s.W ~ =XuXyXuXuXuX<XT.z.U.l.J.J.J.j.  ",
"                          Z c *XsX4XB.% n 6 6 # N ~ =XuX4X4X4X<XT.a.l.l.z.l.l.j.0.  ",
"                          A b *XsX4XB.% 6 6 6 6 K b.=XuX4X4X4X%X>.l.j.j.l.j.0.0.&.  ",
"                          A 4 *XsX6XV.# % $ $ ; n N.:X6X4X4X2X=X1.;.9.0.9.0.&.&.;.$.",
"                        7 A 4 +XiX=X[.~ ~ ~ ~ ~ m.S.$X6X4X4X2X:Xd.#.*.*.*.&.$.| X.0 ",
"                          Z ; *X2X].{.{.{.{.{.{.{.}.}.,X4X4X4X,X1.0 X.$.X.| X.X.q   ",
"                                [.n.'.n.n.n.n.M.M.n.M.            1 | | w e e X.    ",
"                                                                        1 8         "
};
