/* XPM */
static char *b8d816213da7494cee8fe28899aae099WC5SGIJHnPXZcbRD[] = {
/* columns rows colors chars-per-pixel */
"42 42 236 2 ",
"   c #030101",
".  c #0D0000",
"X  c #090A05",
"o  c #1C0B00",
"O  c #190300",
"+  c #230B03",
"@  c #2B1508",
"#  c #35190A",
"$  c #361E12",
"%  c #382413",
"&  c #2E2E2B",
"*  c #540C05",
"=  c #7C141A",
"-  c #680A0A",
";  c #42270D",
":  c #442D15",
">  c #4C2D13",
",  c #4C2D19",
"<  c #442E1D",
"1  c #4D341C",
"2  c #463317",
"3  c #55351B",
"4  c #543B1D",
"5  c #57351A",
"6  c #493726",
"7  c #523721",
"8  c #5B3C24",
"9  c #533C2B",
"0  c #553A24",
"q  c #7B2A2B",
"w  c #623D2B",
"e  c #79312B",
"r  c #53432B",
"t  c #5C432B",
"y  c #5B4527",
"u  c #4C493F",
"i  c #594632",
"p  c #534939",
"a  c #4B4024",
"s  c #65482D",
"d  c #614328",
"f  c #664B30",
"g  c #6A4C34",
"h  c #684C3B",
"j  c #6B543B",
"k  c #6A5437",
"l  c #74563C",
"z  c #7B553C",
"x  c #7D593E",
"c  c #765238",
"v  c #56524A",
"b  c #4E4A47",
"n  c #604E40",
"m  c #6A5746",
"M  c #7B5743",
"N  c #765B44",
"B  c #7B5C43",
"V  c #755C4B",
"C  c #7D5C4B",
"Z  c #745645",
"A  c #695B56",
"S  c #765F51",
"D  c #5C605F",
"F  c #7B634B",
"G  c #766348",
"H  c #7C6452",
"J  c #796A56",
"K  c #726853",
"L  c #7E7563",
"P  c #787676",
"I  c #6B6A68",
"U  c #82131A",
"Y  c #8A211E",
"T  c #932428",
"R  c #8A2D30",
"E  c #AC2938",
"W  c #B42A3D",
"Q  c #B9253C",
"!  c #A2353F",
"~  c #B4353E",
"^  c #B82D42",
"/  c #A83643",
"(  c #B83446",
")  c #815C43",
"_  c #855545",
"`  c #964F4C",
"'  c #A8514C",
"]  c #81664B",
"[  c #876A4C",
"{  c #876B52",
"}  c #8B7357",
"|  c #977A5C",
" . c #88724D",
".. c #A76654",
"X. c #A2604A",
"o. c #8B7D6A",
"O. c #857965",
"+. c #997B66",
"@. c #9B7C72",
"#. c #8B7167",
"$. c #B37C6E",
"%. c #98845F",
"&. c #8E8164",
"*. c #8C826D",
"=. c #8D886B",
"-. c #93836A",
";. c #98896F",
":. c #9A856C",
">. c #8D8374",
",. c #938572",
"<. c #958A74",
"1. c #9B8B73",
"2. c #938A79",
"3. c #9A8C7B",
"4. c #9B8675",
"5. c #9C927C",
"6. c #9B9074",
"7. c #A2896A",
"8. c #A6926E",
"9. c #AA8E72",
"0. c #A48A79",
"q. c #B9897A",
"w. c #A49276",
"e. c #A3937A",
"r. c #AC937B",
"t. c #AC9C7C",
"y. c #AC9474",
"u. c #B19A7C",
"i. c #B6A17D",
"p. c #B9A17E",
"a. c #AFA17E",
"s. c #C68C78",
"d. c #C9957F",
"f. c #9D9282",
"g. c #9E9A88",
"h. c #8C8885",
"j. c #A88985",
"k. c #A39985",
"l. c #AC9D84",
"z. c #A59A8B",
"x. c #A89887",
"c. c #B39D82",
"v. c #AA9D92",
"b. c #B18F83",
"n. c #AEA38C",
"m. c #B3A285",
"M. c #B3A48C",
"N. c #BDA58A",
"B. c #BCAC8D",
"V. c #BAA988",
"C. c #AEA290",
"Z. c #BBAC94",
"A. c #B5A798",
"S. c #BFB29F",
"D. c #B4ACA3",
"F. c #BCADA5",
"G. c #BCB3A2",
"H. c #BDB5AA",
"J. c #CF9280",
"K. c #C3AD8E",
"L. c #C6AA88",
"P. c #CDB58C",
"I. c #CEB88E",
"U. c #C8B58B",
"Y. c #D2B58D",
"T. c #D2B98D",
"R. c #C2AE99",
"E. c #C4AC94",
"W. c #DDAB97",
"Q. c #C4B293",
"!. c #CCB593",
"~. c #CDB993",
"^. c #C4B49B",
"/. c #CBB69B",
"(. c #CCBA9B",
"). c #D3B692",
"_. c #DCB593",
"`. c #D3BA93",
"'. c #DBBA95",
"]. c #D1B59B",
"[. c #D4BC9B",
"{. c #DBBC9C",
"}. c #E2BC9D",
"|. c #C4B8A4",
" X c #CCBCA1",
".X c #C6B8A8",
"XX c #D3BEA3",
"oX c #DBBBA2",
"OX c #C4BEB3",
"+X c #C9BEB8",
"@X c #C2AFB1",
"#X c #E3B9A8",
"$X c #D4C19D",
"%X c #DBC29B",
"&X c #D5C095",
"*X c #CFC0A7",
"=X c #D4C2A3",
"-X c #DAC3A3",
";X c #D5C3AA",
":X c #DAC4AB",
">X c #D8C9AB",
",X c #CDC3B9",
"<X c #CBC7B7",
"1X c #D4C8B4",
"2X c #D4CBBD",
"3X c #D4C4B9",
"4X c #D6D1BC",
"5X c #E0C9A7",
"6X c #CCCBC3",
"7X c #DCCEC4",
"8X c #D6CCC5",
"9X c #DCD5C7",
"0X c #DAD7D6",
"qX c #E4DDCC",
"wX c #E4D8C7",
"eX c #E8DBD2",
"rX c #E6E2CC",
"tX c #EBE3D4",
"yX c #ECE4DA",
"uX c #E3E3DC",
"iX c #F2E8DA",
"pX c #E7E6E4",
"aX c #F7EBE5",
"sX c #FAF1E5",
"dX c #FEF5EB",
"fX c #FEFBEE",
"gX c #F5F8E9",
"hX c #FDF6F2",
"jX c #FEFDF5",
"kX c #F5FCFB",
"lX c #FEFBFF",
"zX c #FFFDFF",
"xX c #FFFEFF",
"cX c #FDFEFD",
"vX c #FEFEFC",
"bX c #F4FBF3",
/* pixels */
"gXjXvXzXzXlXzXzXlXzXzXvXjXjXjXaXwX^.r.:.+.+.0.b..XeXsXvXvXvXjXjXbXvXzXzXzXzXzXvXvXvX",
"jXjXzXzXlXzXzXzXzXzXvXjXjX9Xz.m @ # , 8 8 w 8 , # $ #.F.yXvXvXjXvXvXzXzXzXzXzXzXvXvX",
"vXzXzXzXzXzXvXvXvXvXjXeX,.# : f M ) x z M B x x ) M w # 6 A.aXvXvXzXzXvXzXzXzXzXzXzX",
"lXzXzXzXzXvXzXjXvXjXF.$ 9 B x ) z c c c c c c c c c z ) Z # A 7XlXzXlXzXzXzXzXzXzXzX",
"lXlXzXvXvXvXvXvXdXj.+ V C M M x x x x z z z z x x x M z M C h + @XlXvXzXzXzXlXzXzXzX",
"lXzXzXvXvXjXzXhX>.< H C g w 5 5 5 8 d f l l s d 4 5 5 8 g Z F V O F.vXjXvXzXzXzXzXzX",
"zXzXvXvXjXvXjXv.% H s ; f ] | | | } ] g 4 4 l ] | | | { s > y N S O ,XjXvXzXzXzXzXzX",
"zXzXzXvXvXvX+Xo H 0 g t.Q.[.-X-X{.{.[.!.L.L.!.[.[.{.{.{./.r.j 2 V m 6 eXvXvXvXzXzXzX",
"kXzXzXzXvXaXp m 9 F !.-XXXXXQ.Q.!.~.!.`.[.T.).`.P.~.Q./. X:XXX} : H 9 o.hXvXvXvXjXvX",
"cXcXzXhXvXA.$ V t /.:XB.1.G a % B.~.`.T.T.T.Y.P.[.Q.y 2 m -.Z.;XH 6 H @ 3XjXjXvXvXvX",
"cXcXjXvXaXm m < r.:Xo.. . . i k V.`.I.`.P.`.`.`.[.K.F r o . . ,.Z.0 V i o.dXjXvXvXzX",
"zXvXvXjX2X@ V 7 XXw.. n C.|.XX=X[.`.`.P.).`.`.).[./.XXXX|.n.K . 3.+., ] $ eXfXvXzXzX",
"vXvX2X1X@.t h B XXG O.*X|.k.5.m.[.`.`.).Y.).).[.[.XXl.e.e.^.1X-.j c.; ] 1 1.1X8XjXvX",
"vXD.*.x.1 Z 0 } -Xt.(.n.2.,X4Xn.;.~.[.).'.Y.).].(.1.C.2X1X,.n.XXc.!.y j k t x.O.OXjX",
"tXL >XQ.f N 7 7.[.$XB.2.dXvXvXjX|.;.-X!.T.).`.-X<.H.jXjXjXsX3.M.-X!.N s N h XXXX*.iX",
"wX<.=Xi.4 B , r.-X(.&.tXvXlXkXvXfXk.V.[.`.`.[.B.f.jXjXvXjXvXyXo.[.[. .y N 0 N.;X<.rX",
"9X<.-Xi.1 F : r.{.K.k.jXvXzXzXvXfX4X6.-X!.`.[.w.<XjXvXzXzXvXjXz.V.%X| 7 C 0 N.;X<.tX",
"rX=.-Xp.4 B : e.5Xc.A.jXzX0Xh.uXjXqX1.-X`.~.[.;.qXvX0Xh.pXzXvXG.i.%X7., C 7 N.=X<.iX",
"sX,.-Xp.4 F : w.-Xu.G.vXbXD   P jXqX4.XXP.~.$X-.rXjXI   P vXvXG.a.%X7.> B 4 K.(.f.sX",
"vXz.K.K.3 ) : y.-XB.k.jXuX& X v sX7Xx.:X$X`.-Xe.4XaXb & & pXjXg.B.-X9.> B 8 Q.B.A.jX",
"zXH.M.E.3 B 1 w.[.[.*.tXgXu   v 9X<.o.w.%.7.8.&.=.9Xu   A jXyXO.(.{.9.> B 4 Q.l.,XvX",
"zX0X0.].8 B 2 w.[.(.Z.k.qXK p L <.w.c.m.p.i.i.t.e.<.O.p L qXk.Z.=XXX9.> B t  X<.uXvX",
"zXhX3.R.l j 2 w.:XQ.e.F :.N.(.(.$X$X%X[.%X`.[.{.XXXXXX/.M.&.G w.K.-Xy.> l F Z.f.jXzX",
"zXvX,Xo.H k r 1.u. .u.].oX{.~.~.~.P.T.T.T.).).).!.`.!.~.$X[.~.8. .p.9.1 k J O.9XvXvX",
"jXvXjXOXn m r 7 8.`.%X!.).).~.~.U.T.T.`.T.`.).).P.`.).`.`.`.`.%XU.y.0 t h m 2XjXvXzX",
"vXvXvXjX1Xo m K.%X`.P.`.Y.).[.T.T.T.T.T.T.`.T.).).T.T.T.).T.T.'.).$XN.m o 7XjXjXvXzX",
"vXzXcXvXtXi ^.-XP.I.).`.'.}._._._.'.'.).`.I.`.`.I.`.).T.).`._.Y.`.!.;XZ.n iXjXvXzXzX",
"zXlXcXvXG.l.;X!.[.).).{.s...X.X.....d._.).`.`.P.`.`.`.).).).).`.~.(./.;Xv.OXvXvXzXzX",
"vXzXzXpXJ |.^.(.-X[.#X$.- Y T T T = * s.}.`.!.`.~.`.~.`.[.$X`.$X[. X^.^.S.K aXzXvXvX",
"vXvXzX6X6 i O.k.-.r.q.e ! ~ ^ W ^ ( R ` W.[.(.(.(./.Q.K.B.V.t.w.1.6.l.G r p 8XzXvXvX",
"zXvXzXD.A.e.L wXiXx.q.R / E W Q Q W ! q +.4.3.5.>.*.v.v.2.f.OX8Xf.wX^.G Z.A.H.vXvXvX",
"kXcXvXD.M.:XZ.,..XR.#Xe ' E W Q Q W ! ` @.3XsXgX6XOXhXjX9X8XvXaX,.1.t.(.*XM.D.vXvXzX",
"kXcXjXH.l.XX(.(.w.+._ * R / / ( ^ ( / ` j.eXvXvX0X6XjXjX2Xf.A.o.t.U.[.(. Xl.OXvXzXzX",
"cXvXjXwX,.;X!.~.%X`.L.q.` q - = U U R _ @.wXjXgX<Xg.<Xz.,.1.Z.(.%XT.`.!.;X,.eXvXzXzX",
"cXvXvXdX3.^.XX!.~.`.{._._.W.J.$...X._ _ H ,.5.3.,.5.l.B.(.{.[.`.P.I.~.=XZ.f.jXvXzXzX",
"cXzXvXjXeXO. X$X~.`.Y.Y.'.'.'.}.}.{.).)././.Q.(.XX$X[.`.`.Y.T.).~.~.(. XL yXvXjXzXzX",
"zXzXzXjXjX<XO. X[.~.`.T.T.Y.T.P.P.!.).[.`.].[.`.).!.`.I.T.T.).T.~.=X XO.8XjXvXvXzXzX",
"zXcXzXzXjXjX2XO.Z.-X~.`.P.T.&XI.`.`.).).).).'.).).T.I.`.T.T.P.[.=XM.o.2XjXvXvXzXzXzX",
"zXzXzXzXzXvXjXtXf.<.Q.=X[.`.!.`.I.I.P.T.).T.).T.T.`.~.~.[.{.-XQ.<.k.yXjXjXzXzXzXzXzX",
"zXzXzXzXzXvXvXvXfX2Xf.,.M.(.XX-X[.[.[.`.`.P.[.`.[.$X[.=XQ.M.;.5.7XjXjXjXvXzXzXzXzXzX",
"zXzXzXzXzXzXzXvXjXvXjX9XA.3.1.w.m.B.!.!.(.(.!.!.B.m.w.,.f.G.qXjXvXvXvXvXzXzXzXzXzXzX",
"zXzXzXzXzXzXzXzXzXzXvXvXjXsXqX1XZ.l.1.:.;.-.-.1.l.R.1XtXdXjXvXzXzXzXzXzXzXzXzXzXzXzX"
};
