/* XPM */
static char *ceed3c3a8c4a40d6a69663543ee8cc27hKZSAuX0MPBaUvGI[] = {
/* columns rows colors chars-per-pixel */
"42 42 186 2 ",
"   c #F1F1F1",
".  c black",
"X  c #00001B",
"o  c #040715",
"O  c #290000",
"+  c #340000",
"@  c #262623",
"#  c #343332",
"$  c #3C3C37",
"%  c #3A3431",
"&  c #460000",
"*  c #4D1C1B",
"=  c #59321F",
"-  c #423E35",
";  c #5E411E",
":  c #634317",
">  c #474238",
",  c #644622",
"<  c #6E4F26",
"1  c #6D512F",
"2  c #73532A",
"3  c #79582A",
"4  c #744D3F",
"5  c #6E5230",
"6  c #795A33",
"7  c #7E623D",
"8  c #484644",
"9  c #784847",
"0  c #7D7462",
"q  c #7C7A79",
"w  c #906A16",
"e  c #835E2C",
"r  c #8C642D",
"t  c #896428",
"y  c #906D22",
"u  c #9F782F",
"i  c #997126",
"p  c #866334",
"a  c #886431",
"s  c #8E6935",
"d  c #8C6838",
"f  c #916A35",
"g  c #946E3C",
"h  c #97713D",
"j  c #9B733B",
"k  c #9A7332",
"l  c #A27836",
"z  c #A37B3D",
"x  c #A97E3D",
"c  c #86664A",
"v  c #9A7443",
"b  c #9F7845",
"n  c #9E714A",
"m  c #8F6F59",
"M  c #8F6A54",
"N  c #8F705A",
"B  c #82735D",
"V  c #92735C",
"C  c #9A7956",
"Z  c #A47C43",
"A  c #A97F43",
"S  c #A57E4A",
"D  c #A97F48",
"F  c #A0724A",
"G  c #997D65",
"H  c #857D74",
"J  c #AF7D65",
"K  c #AC813D",
"L  c #AC8143",
"P  c #A7804A",
"I  c #AC844C",
"U  c #B38642",
"Y  c #BA8D45",
"T  c #B0864C",
"R  c #B58B4C",
"E  c #B88C47",
"W  c #BD904E",
"Q  c #AD8651",
"!  c #AA8858",
"~  c #B28A54",
"^  c #B88E53",
"/  c #B48D5C",
"(  c #BD9254",
")  c #B6915B",
"_  c #BA925C",
"`  c #988067",
"'  c #9F8268",
"]  c #958D73",
"[  c #AE8D64",
"{  c #B48F60",
"}  c #AE916F",
"|  c #B69264",
" . c #BB9562",
".. c #BF9865",
"X. c #B99669",
"o. c #BE9B6C",
"O. c #B79469",
"+. c #A38E74",
"@. c #B48977",
"#. c #A99578",
"$. c #BF9F74",
"%. c #B4997C",
"&. c #B6997D",
"*. c #BEA17E",
"=. c #BFA071",
"-. c #C3944C",
";. c #C29654",
":. c #C59850",
">. c #C19758",
",. c #C49A5C",
"<. c #C49B63",
"1. c #C89F63",
"2. c #C39D6A",
"3. c #C0867C",
"4. c #C09C70",
"5. c #C6A16E",
"6. c #CAA26B",
"7. c #CAA167",
"8. c #C4A173",
"9. c #CDA673",
"0. c #C6A479",
"q. c #CCAA7C",
"w. c #CBA77B",
"e. c #D0A974",
"r. c #D3AD7C",
"t. c #7E8287",
"y. c #81858A",
"u. c #B78182",
"i. c #B29D80",
"p. c #B99E81",
"a. c #BBA285",
"s. c #BAA286",
"d. c #A5A6A6",
"f. c #C08386",
"g. c #D3938E",
"h. c #CE9694",
"j. c #DE9D9C",
"k. c #D79A96",
"l. c #C1A584",
"z. c #CCAD84",
"x. c #C1A789",
"c. c #C5AB8C",
"v. c #C9AE8E",
"b. c #D2AE83",
"n. c #CCB18E",
"m. c #D6B182",
"M. c #D6B284",
"N. c #D8B486",
"B. c #D5B48A",
"V. c #D9B78B",
"C. c #DBB98D",
"Z. c #C8AF91",
"A. c #CDB494",
"S. c #D0B694",
"D. c #D4B993",
"F. c #D4BB9A",
"G. c #D8BB95",
"H. c #DA9FA0",
"J. c #DFA9A8",
"K. c #E5ABAA",
"L. c #E1A1A0",
"P. c #F4B5B3",
"I. c #FAB9B8",
"U. c #DBC29E",
"Y. c #E1C59B",
"T. c #E2C89F",
"R. c #DDC5A2",
"E. c #DAC8A6",
"W. c #E3CAA5",
"Q. c #E4CDA9",
"!. c #E8CFAA",
"~. c #ECD3AC",
"^. c #E7D4AC",
"/. c #F1D7AD",
"(. c #ECD5B1",
"). c #EDDBB5",
"_. c #E7D7B1",
"`. c #F0D7B1",
"'. c #F4DBB4",
"]. c #F4DEB9",
"[. c #F8DFB9",
"{. c #F9E1B6",
"}. c #FAE3BB",
"|. c #FDE8BF",
" X c #F1E1BA",
".X c #FDE8C1",
/* pixels */
"                                                                                    ",
"                                                                                    ",
"                                                                                    ",
"                                  K U U U U U U K                                   ",
"                              K Y -.:.:.:.:.:.:.-.Y K                               ",
"                          x Y -.( ;.;.,.,.,.,.;.;.( -.Y x                           ",
"                        K -.W ( >.,.,.1.1.1.1.,.,.>.( W -.K                         ",
"                      U W ( ( ,.,.1.6.6.6.6.6.7.1.,.,.( ( W U                       ",
"                    U R ( ( ,.1.6.6.9.e.e.e.e.9.6.7.1.,.( ( R U                     ",
"              5.z x R ^ ( ,.1.6.9.e.r.r.r.r.r.r.e.9.6.1.,.( ^ R x z 5.              ",
"         ./ ! { L U R ( _ <.6.9.e.r.m.M.N.N.m.m.r.e.9.6.<._ ( R U L / ! /  .        ",
"    ) ..6 = 9 r L R ^ _ <.2.5.9.r.m.N.V.V.V.V.N.m.r.9.5.2.<._ ^ R L r 9 = 6 ..)     ",
"    ..5 9 f.3.l I R ) _ ..2.5.9.r.M.V.C.C.C.C.V.M.r.9.5.2..._ ) R I l 3.f.9 1 ..    ",
"  ) C 9 h.j.J u I ~ ) _ ..<.2.8.w.b.B.C.C.C.C.B.b.w.8.2.<..._ ) ~ I u J H.h.9 C |   ",
"  X.7 u.K.L.n z I ~ ) _ _ _  .o.8.w.b.B.V.V.B.b.w.8.o. ._ _ _ ) ~ I z n L.K.u.7 X.  ",
"  o.c H.P.j.f Z I ~ Q ~ | X.| / / X.0.z.b.b.z.0.X./ / | X.| ~ Q ~ I Z f j.P.j.c o.  ",
"  8.M K.P.k.r Z I I $.n.A.A.A.v.l.X.{ 4.0.0.$.{ X.l.v.A.A.A.n.$.I I Z r k.P.K.M 8.  ",
"  $.N K.P.g.t Z Q S.R.A.c.a.a.c.Z.A.c.| X.X.| c.A.Z.c.a.a.c.A.R.S.Q Z t g.P.K.N =.  ",
"  o.C J.I.3.y P D.W.F.A.c.a.s.s.x.c.F.A.O.O.A.F.c.x.p.s.a.c.A.F.W.D.P y 3.I.J.C o.  ",
"  X.[ h.I.F i 0.~.W.R.U.R.v.} s.x.Z.A.F.F.F.F.A.v.x.a.} v.U.U.R.W.~.0.i F I.h.[ X.  ",
"    o.@.k.w P T.~.~.Q.~.F.H q ` v.A.S.F.F.F.F.S.A.v.` q H F.~.Q.~.~.T.P w k.@.o.    ",
"    | [ n u | ~.~.(.(.'.B y.d.% x.F.U.R.E.E.R.U.F.x.$ d.t.B '.(.(.~.~. .u n [ |     ",
"      o.k l 8.'.`.'.'.~.> . . . i.R.Q.(.].].).Q.R.i.. . . > ~.'.'.`.'.8.l k o.      ",
"      g Z z w.'.'.'.[.Q.@ @ # . %.Q.~.].}.}.].~.Q.%.. # @ @ Q.[.'.'.'.w.z Z g       ",
"        L x 8.'.'.[.[.(.> # 8 . a.~.~.'.}.}.].~.~.a.. 8 # - (.[.[.'.'.0.x L         ",
"      f L I ) ~.].}.}.}.0 X 8 o D.~.~.'.}.}.'.~.~.D.o 8 X 0 }.}.}.].~.) I L s       ",
"      s A I T B.}.}.}..XE.$ . #.!.T.Y.~.{.{.~.Y.T.~.#.. $ E..X}.[.}.B.T I A f       ",
"      s Z I ~ ^ Y.|.|.}.|.^.F./.Q.B.B.*.U.U.*.B.B.Q./.F.^.|.}.|.}.Y.^ ~ I Z s       ",
"        z D ~ ) ( B.].|.}.{.{.'.U.D.S.O s.s.O S.D.U.'.{.{.}.|.].B.( ) ~ Z z         ",
"        j Z I ~ _ ( 5.Y./.[.'.'.W.G.Q.a.A.A.s.Q.G.W.'.'.}./.Y.5.) _ ~ I Z j         ",
"        a j S Q ^ _ _ ) _ T.'.~.~.W.R.Q.R.R.Q.R.W.~.~.'.T._ ) _ _ ^ I S j a         ",
"        6 j b P Q ~ /  .^ q.(.Q.~.!.Q.W.Q.Q.W.Q.!.~.Q.(.q.^  ./ ~ Q P b j 3         ",
"          a h b S Q ~ ~ T z.~.W.+.+.#.i.s.s.i.#.+.+.W.~.z.T ~ ~ Q S b h a           ",
"          2 f h b S I Q D z.Q.~.] . . . . . . . . ] ~.Q.z.D Q I S b h f 2           ",
"            2 s g v b S Z z.R.R. X#.+ & * * & + #. XR.R.z.Z S b v g s 2             ",
"              < a d g v g *.F.S.F.].E.G 4 4 G E.].F.S.F.*.g v g d a <               ",
"                : 2 e p e } v.c.v.A.Q.).(._.).Q.A.v.x.v.} e p e 2 ,                 ",
"                    ; , : c %.&.p.a.x.v.A.A.v.x.a.p.&.%.c : , ;                     ",
"                              V G &.p.x.c.c.x.p.&.G V                               ",
"                                  N ' &.p.p.&.' N                                   ",
"                                      m V V m                                       ",
"                                                                                    "
};
