/* XPM */
static char *_53fb915faba435d8ba702d0b4ff04a0Bh6kdpxWzxQ6rYhN[] = {
/* columns rows colors chars-per-pixel */
"42 42 160 2 ",
"   c #F1F1F1",
".  c #5C3700",
"X  c #4A341F",
"o  c #4F3821",
"O  c #533A21",
"+  c #5A3E22",
"@  c #62421F",
"#  c #69451D",
"$  c #704A1F",
"%  c #784E1E",
"&  c #5C4024",
"*  c #644423",
"=  c #694725",
"-  c #6D4A26",
";  c #664A2F",
":  c #6D4B28",
">  c #764F25",
",  c #794F22",
"<  c #724E29",
"1  c #775027",
"2  c #7A5126",
"3  c #76502A",
"4  c #7B542C",
"5  c #735133",
"6  c #7C5733",
"7  c #7C5837",
"8  c #7D5B3C",
"9  c #7F5F42",
"0  c #81572C",
"q  c #82582E",
"w  c #805731",
"e  c #815932",
"r  c #835D3B",
"t  c #86603C",
"y  c #89623E",
"u  c #805F42",
"i  c #836346",
"p  c #8D6542",
"a  c #8F6845",
"s  c #86674D",
"d  c #85694F",
"f  c #8C6A4C",
"g  c #916945",
"h  c #9B6E45",
"j  c #966D4A",
"k  c #97704C",
"l  c #9F734E",
"z  c #957050",
"x  c #AE7A4A",
"c  c #B07D4D",
"v  c #A07651",
"b  c #A47953",
"n  c #AE7E53",
"m  c #B07F52",
"M  c #8C7560",
"N  c #8F7B66",
"B  c #907B67",
"V  c #917D6A",
"C  c #BA824E",
"Z  c #AE8057",
"A  c #AF8259",
"S  c #B28156",
"D  c #BA8656",
"F  c #B4845A",
"G  c #B9875C",
"H  c #B7885F",
"J  c #BA895E",
"K  c #958472",
"L  c #988775",
"P  c #998977",
"I  c #9C8B7A",
"U  c #AF8561",
"Y  c #B28761",
"T  c #B38863",
"R  c #BB8B62",
"E  c #B78E6C",
"W  c #BC8F69",
"Q  c #BC906B",
"!  c #BC9574",
"~  c #BE9A7B",
"^  c #C18F64",
"/  c #C49165",
"(  c #C89264",
")  c #C5946B",
"_  c #CC986D",
"`  c #D29C6D",
"'  c #C39876",
"]  c #CB9B74",
"[  c #C29C7C",
"{  c #CAA07E",
"}  c #D5A176",
"|  c #D3A27B",
" . c #BC9D82",
".. c #BBA894",
"X. c #BFAD99",
"o. c #9A9EA0",
"O. c #9BA2A6",
"+. c #BDAFA6",
"@. c #BDB1AA",
"#. c #BBBBBC",
"$. c #C4A385",
"%. c #C4A78C",
"&. c #C7A98F",
"*. c #D7A780",
"=. c #D8A780",
"-. c #D7A883",
";. c #CAAD93",
":. c #C1AC9B",
">. c #CAB097",
",. c #CEB49B",
"<. c #D1B39B",
"1. c #EAB387",
"2. c #C1AFA2",
"3. c #CEB9A3",
"4. c #CDB7A8",
"5. c #C3B4AB",
"6. c #D2BDA6",
"7. c #D5BEA7",
"8. c #D1BAA3",
"9. c #D5BFA8",
"0. c #D3BEA8",
"q. c #C3B9B3",
"w. c #C0BFBF",
"e. c #D7C1AA",
"r. c #D5C0AA",
"t. c #D8C2AB",
"y. c #D9C3AC",
"u. c #DAC3AC",
"i. c #DAC5AE",
"p. c #DBC6AF",
"a. c #DAC4AD",
"s. c #DDC6AF",
"d. c #DCC5AE",
"f. c #CCC1BA",
"g. c #DBC6B0",
"h. c #DDC7B0",
"j. c #DFC9B2",
"k. c #DFC8B1",
"l. c #DECAB5",
"z. c #DECBBD",
"x. c #E1CAB3",
"c. c #E0CBB4",
"v. c #E1CCB5",
"b. c #E2CCB5",
"n. c #E5CEB6",
"m. c #E0CABB",
"M. c #EAD2B9",
"N. c #C1C2C3",
"B. c #CCC6C2",
"V. c #CCCCCB",
"C. c #C8CDD0",
"Z. c #CFD0D1",
"A. c #D4D6D8",
"S. c #D7D9D9",
"D. c #DCDDDD",
"F. c #E3DBD6",
"G. c #E8DDD6",
"H. c #F2EAE5",
"J. c #F1F1F0",
"K. c #FDFEFE",
/* pixels */
"                                            F F                                     ",
"                                      F F G D D S Z                                 ",
"                                ;.S C G S S S S m D S F                             ",
"                        r.3.0.n.n.8.[ S c S S S S S S G S A                         ",
"                    l.n.M.x.8.3.r.i.i.8.~ m c F F S S S S G S F                     ",
"              Y F J $.7.v.k.d.r.3.8.9.i.i.<.! c c F S S S S S G S Z                 ",
"          F S G F S x n $.y.v.k.i.9.3.8.r.i.i.,.! x c F S S S S S G S F             ",
"    ) n G G S S S S F F c F &.g.v.h.i.7.3.7.r.i.i.>.Q x m F S S S S S D S A         ",
"  ) 1.] H n S S S S S S F S x T >.k.v.d.y.7.3.7.t.i.y.;.E x m F S S S S m D S H     ",
"    / ] | ] F m F F S S S S F m x E ,.v.x.d.y.7.3.7.t.i.t.;.T x S S m S F G F n f   ",
"    ) J R | | / m m F S S S S S F c x ~ 7.v.k.d.t.8.3.7.y.g.r.&.H m J J n p : # 8   ",
"    ) R R R ) | | R n S S S S S S F F c n  .r.v.k.d.r.3.3.7.y.k.h.~ h 7 * = 4 q r   ",
"    / R R R R R ] =.] F m F F S S S F F F x A %.i.v.d.d.y.7.r.3...K . < 4 0 4 0 7   ",
"    R R R R R R J R | *.) F m F F F S S S F S x U ;.v.n.h.:.I L L N 4 6 4 4 4 q i   ",
"    R R R R R R R R J ) } | Q S S F S F F S S H G c  .X.I K K L I B , 4 4 4 4 q s   ",
"    R R R R R R R R R W 4.{ ` | R n F S F J R H v 7 ; K L P K L P B , 4 4 4 4 q 8   ",
"    R R R R R R R R R ^ B.D.m._ } ] F J R A a : @ $ u I P L K L I B % 6 4 4 4 q     ",
"    R R R R R R R R R R f.A.K.H.<.} -.b 7 * * 4 e 4 8 L L P I K M 8 4 4 4 4 4 0     ",
"    R ^ R R R R R R R R @.N.V.K.K.z.R 5 - e e 4 4 2 8 I P V d 6 % 2 4 4 4 4 4 q     ",
"    R / R R R R R R R R +.o.N.J.K.H.c r 4 4 4 4 4 4 8 N i 2 % 4 4 4 4 4 4 4 4 q     ",
"    W / R R R R R R R R 5.#.w.V.D.G.F r 4 4 4 4 4 4 4 , , 4 4 4 4 4 4 4 4 4 4 q     ",
"    W / R R R R R R R J 2.O.#.V.N.f.R e 4 4 4 4 4 4 4 4 4 4 4 4 4 4 4 4 4 4 4 q     ",
"    R / R R R R R R R J ' 2.#.Z.S.G.R r 4 4 4 4 4 4 4 4 4 4 4 4 4 4 4 4 4 4 4 e     ",
"    Q / J J R R R R R R J G ;.q.C.F.R r 4 4 4 4 4 4 4 4 4 4 4 4 4 4 4 4 4 4 4 w     ",
"      / J J J R R R R R R R D ^ :.q.Q e 4 4 4 4 4 4 4 4 4 4 4 4 4 4 4 4 4 4 : 4     ",
"      / J H J R J R R R R R R R G [ W r 4 4 4 4 4 4 4 4 4 4 4 4 4 4 4 < 4 : + 4     ",
"      / J H J R J R R R R R R R R J W t 4 4 4 4 4 4 4 4 4 4 4 4 3 4 4 + : : * 4     ",
"      ^ H H J R J J R R R R R R R R W y 4 4 4 4 4 4 4 4 4 4 < + + 4 4 * 4 : * 6     ",
"      R J H H J J H J R R R R R R R W y 4 4 4 4 4 4 4 4 < : o X : 4 4 & 3 - * 4     ",
"      R J H H J J H J R R R R R R R W y 4 4 4 4 4 4 4 4 + * X + 4 4 4 + 4 : * 4     ",
"      Y ( J H J J H J R R R R R R R W p 4 4 4 4 4 4 4 4 = O + 3 4 4 4 & < - - 6     ",
"        Y R R R J J J R R R R R R R W p 1 4 4 4 4 4 4 4 4 3 < 4 4 4 4 * - 3 0 7     ",
"            H / J J J J R R R R R R W p 1 4 4 4 4 4 4 4 4 4 < 4 4 4 4 3 0 q 7       ",
"              F / J J R R J R R R R R p > 4 4 4 4 4 4 4 4 4 = 3 4 4 4 4 7           ",
"                  H ^ R J J R R R R R a > 4 4 4 4 4 4 4 4 : : 4 4 4 7               ",
"                    Y / J H R R R J R g > 4 4 4 4 4 4 4 4 4 0 4 8                   ",
"                      T J R R R R R R g > 4 4 4 4 4 4 4 0 4 8                       ",
"                          H ^ R R R W j > 4 4 4 4 4 0 6 9                           ",
"                            Y R R R R j > 4 4 4 q 7 u                               ",
"                                H ^ R k > 4 0 7                                     ",
"                                  F ) l 2 7                                         ",
"                                      z                                             "
};
