/* XPM */
static char *_6ec886e2b13405cb5a7c7242ab5fe16q2gvb1Ckwhoox5sC[] = {
/* columns rows colors chars-per-pixel */
"42 42 225 2 ",
"   c #F1F1F1",
".  c #001900",
"X  c #002C00",
"o  c #1A2802",
"O  c #253406",
"+  c #2B3C0A",
"@  c #293806",
"#  c #2B3411",
"$  c #212B0A",
"%  c #330035",
"&  c #2C4301",
"*  c #2F4704",
"=  c #324403",
"-  c #354A03",
";  c #394C03",
":  c #33440C",
">  c #394C0B",
",  c #374804",
"<  c #3C5304",
"1  c #3E530C",
"2  c #365100",
"3  c #364611",
"4  c #3B4C15",
"5  c #3E4D1A",
"6  c #374812",
"7  c #3F5215",
"8  c #3F5019",
"9  c #4A4E0D",
"0  c #415303",
"q  c #435B03",
"w  c #4A5A00",
"e  c #41560A",
"r  c #435B0B",
"t  c #495E0B",
"y  c #464C14",
"u  c #415414",
"i  c #455A13",
"p  c #495D14",
"a  c #43541B",
"s  c #48571D",
"d  c #465A1B",
"f  c #4A5C1D",
"g  c #545E10",
"h  c #4B6501",
"j  c #4B6B07",
"k  c #4B630C",
"l  c #4A6908",
"z  c #526C01",
"x  c #556E08",
"c  c #596807",
"v  c #57790C",
"b  c #567609",
"n  c #4B6414",
"m  c #4E6A12",
"M  c #546B13",
"N  c #52641A",
"B  c #546A1B",
"V  c #596513",
"C  c #597315",
"Z  c #5B721D",
"A  c #597612",
"S  c #627A17",
"D  c #626D15",
"F  c #455422",
"G  c #4B5C24",
"H  c #49582A",
"J  c #5F5B26",
"K  c #4F6221",
"L  c #5B6B24",
"P  c #5D6F2A",
"I  c #536525",
"U  c #5D7724",
"Y  c #5E752A",
"T  c #546431",
"R  c #6D7D2D",
"E  c #647726",
"W  c #71742C",
"Q  c #6B7E32",
"!  c #657739",
"~  c #767937",
"^  c #5E4665",
"/  c #9E3340",
"(  c #945352",
")  c #AA5250",
"_  c #B16262",
"`  c #A86361",
"'  c #C3625E",
"]  c #63840B",
"[  c #6A8805",
"{  c #678614",
"}  c #6F9210",
"|  c #789914",
" . c #778A1D",
".. c #7FA21F",
"X. c #6A852B",
"o. c #658421",
"O. c #728424",
"+. c #7C8C2A",
"@. c #748D27",
"#. c #7E912C",
"$. c #769528",
"%. c #768534",
"&. c #7B8C35",
"*. c #758B3B",
"=. c #758939",
"-. c #6F9038",
";. c #769338",
":. c #6A8A32",
">. c #778A42",
",. c #788A43",
"<. c #7C9843",
"1. c #898F1C",
"2. c #83A91C",
"3. c #83A31F",
"4. c #82932D",
"5. c #8C992F",
"6. c #839435",
"7. c #8D9A33",
"8. c #84943B",
"9. c #899739",
"0. c #8E9D3B",
"q. c #889934",
"w. c #929E34",
"e. c #899228",
"r. c #84A523",
"t. c #89A534",
"y. c #94A33D",
"u. c #94AC3E",
"i. c #8DB138",
"p. c #8FB331",
"a. c #849B43",
"s. c #879949",
"d. c #999F4E",
"f. c #8A9250",
"g. c #8CA54C",
"h. c #8CA847",
"j. c #93A341",
"k. c #9DAD44",
"l. c #93A44B",
"z. c #9AAA4B",
"x. c #8FB246",
"c. c #9ABB4B",
"v. c #9BB547",
"b. c #8CA454",
"n. c #9BAF5A",
"m. c #95AB53",
"M. c #99B755",
"N. c #A1AE41",
"B. c #A3B343",
"V. c #A5B54C",
"C. c #A6BB4B",
"Z. c #ACB94A",
"A. c #A6B745",
"S. c #B6BE48",
"D. c #A1AF54",
"F. c #A3B254",
"G. c #A5BB53",
"H. c #AABC52",
"J. c #A7B65B",
"K. c #B0BE5F",
"L. c #B0B75A",
"P. c #94977C",
"I. c #9CB462",
"U. c #9DB36C",
"Y. c #A4B763",
"T. c #A8BB66",
"R. c #B1BF68",
"E. c #9EC746",
"W. c #ABC04C",
"Q. c #B2CD4B",
"!. c #A8C65A",
"~. c #B1C452",
"^. c #BECB5C",
"/. c #B7C659",
"(. c #B3DA59",
"). c #AAC362",
"_. c #AECB62",
"`. c #AAC369",
"'. c #BCCD61",
"]. c #B5C36C",
"[. c #B1CA6C",
"{. c #AFD662",
"}. c #ABD960",
"|. c #B3D565",
" X c #B9D768",
".X c #AFC273",
"XX c #BDCD75",
"oX c #BECB78",
"OX c #B7C672",
"+X c #BDDF70",
"@X c #BAD577",
"#X c #BBE06B",
"$X c #BFE170",
"%X c #C2CB5B",
"&X c #CAD05B",
"*X c #DCDF59",
"=X c #C6CB47",
"-X c #C0CF64",
";X c #C5D362",
":X c #C7D768",
">X c #C4DE73",
",X c #CDDB72",
"<X c #CBD77C",
"1X c #C3D879",
"2X c #C5ED61",
"3X c #CEF06E",
"4X c #D0F36B",
"5X c #C5E57B",
"6X c #CCEB7E",
"7X c #CBE075",
"8X c #D1E479",
"9X c #D5E67E",
"0X c #CFF17C",
"qX c #E5E865",
"wX c #F8FA73",
"eX c #C3DD82",
"rX c #CEDA84",
"tX c #D5E781",
"yX c #DCEB87",
"uX c #D5EE8C",
"iX c #D9EA85",
"pX c #DCF38B",
"aX c #D9F786",
"sX c #CDE983",
"dX c #E0ED89",
/* pixels */
"                                                                                    ",
"                                                                                    ",
"                                                                                    ",
"                                                                                    ",
"                                                                                    ",
"                                                                                    ",
"                      |.E.}.(.2X4X3X(.i.                                            ",
"                    M.f.P.x.p.2.2.p.c._.i.                                          ",
"              >X>X!.N % ^  .~.C.G.G.M.g.x...                                        ",
"              c.u.B.Q.R O.'.:X'./.G.g.X.[ r.r.                                      ",
"              W q.H.G.v.c.l.j.j.y.#.z z [ i.t.                                      ",
"            ' / @ q < 2 * 2 q w t 0 9 V { r.3.                                      ",
"  _ _   _ )                         9 g { | | {                                     ",
"    ( `                             J V ] } } {                                     ",
"                                    ~ D ] ] ] v                                     ",
"                                    ~ z v v v m                                     ",
"                                  d.W h j j l                                       ",
"                                  s.w k l l r                                       ",
"                                d.V q r r l 1                                       ",
"                              L.+.; r q r 1                                         ",
"                              B.= i r r q                                           ",
"                            &Xw 1 e e e >                                           ",
"                          qX4.& r e < ;                                 M.@X        ",
"                        wXS.X i < < ,                                     {.@X      ",
"                        *X; e < < ; >                 c.c.v.u.t.          ;.#X      ",
"                      qX1.* e < ; ,                 !.6X>X/.W.A.t.          x.).    ",
"                      =X0 1 ; , -                 |.aXpXtX,X^.~.C.6.          |.    ",
"              ).M.  Z.5.; > , = :                XaXpXdXyXtX1XJ.&.N           h.g.  ",
"            [.5X5X+X!.@.o = > >               $XaXpXyXdXyXXXs.B < +           <.h.  ",
"          s.1XuXuXsX5X Xh.p . o           {.0XiXyXtX9X<Xn.Z < > p U U         -.t.E ",
"          ! b.@XtX7X X|.+X|.M.;.*.    |.+XaXiX8X,X:XK.&.h u i Z ;.<.@.$.;.    :.$.Z ",
"          @ ! f.J.'.;X'.:X>X6X6X5X5X6XaX9X8X,X;X/.j.S k a N X.b.I.l.#.@.$.    X.{ B ",
"          ,.s T ! a.V.-X,X,X,X,X8X9X8X,X;X^.~.N.+.x r d U ;.I..XR.D.q.4.@.p   o.A n ",
"        `.@XU.T 8 I E 6.V./.^.%X%X;X;X%XS.N.4.S h 1 K X.a.Y.OXoXXXJ.q.O.M   Y C M   ",
"      Y.eXeXeX`.! 4 u t C O.q.u.k.B.B.y.4.S h q d Y ;.g.T.OXoXrX].8.E p > 5 n M t   ",
"      I.XX[.!._.).<.G 5 > 2 w h x x z h q q f Y =.a.m.T.].OX<XR.%.L u : 4 u n k 7   ",
"      =.`.).C.C.C.!.m.>.! I F a u u s K P Q *.a.g.n.Y.T.].XXF.R L u 4 5 a d p r     ",
"      , %.F.H.Z.A.C.H.G.l.s.,.,.*.=.=.*.;.8.a.l.z.z.F.L.K.l.R I 5 F F a s d r 6     ",
"        @ L 8.k.V.A.B.B.k.y.0.6.6.6.+.#.#.q.q.0.y.z.F.z.8.E f 5 H G F a a 1 :       ",
"          O 3 L &.y.k.N.N.N.N.y.5.7.w.w.7.7.7.y.j.a.8.Q L u 6 F a 8 5 3 + +         ",
"              o @ u L %.8.0.0.j.j.9.9.6.6.&.&.%.R P G 8 : $ # @ O O O               ",
"                        + 5 s s s s a a a a 4 3 :                                   "
};
