/* XPM */
static char *fadd03fa356e4f5ddc7433b226440a538iZQYv2zz7ZlrIMc[] = {
/* columns rows colors chars-per-pixel */
"42 42 218 2 ",
"   c #F1F1F1",
".  c #000001",
"X  c #000009",
"o  c #000114",
"O  c #00001C",
"+  c #000D18",
"@  c #1C1C1B",
"#  c #181714",
"$  c #261C06",
"%  c #1C211D",
"&  c #23211F",
"*  c #2B261E",
"=  c #2C281C",
"-  c #392719",
";  c #000022",
":  c #00022C",
">  c #001527",
",  c #18252A",
"<  c #0E2129",
"1  c #252423",
"2  c #2B2926",
"3  c #2C2D2C",
"4  c #262725",
"5  c #312C23",
"6  c #342F26",
"7  c #2F302F",
"8  c #383426",
"9  c #333433",
"0  c #3A3B39",
"q  c #272931",
"w  c #520000",
"e  c #620000",
"r  c #640C00",
"t  c #6B1800",
"y  c #553915",
"u  c #423318",
"i  c #752C00",
"p  c #7A3B00",
"a  c #5F5116",
"s  c #7E4201",
"d  c #7C540C",
"f  c #725214",
"g  c #47463B",
"h  c #595822",
"j  c #68673E",
"k  c #091B42",
"l  c #1A2749",
"z  c #2D3553",
"x  c #313655",
"c  c #39415A",
"v  c #484845",
"b  c #41475E",
"n  c #555755",
"m  c #6D6B43",
"M  c #686966",
"N  c #71736E",
"B  c #737573",
"V  c #6F726F",
"C  c #935709",
"Z  c #895E15",
"A  c #834903",
"S  c #896718",
"D  c #986B15",
"F  c #947715",
"G  c #97640D",
"H  c #B37D0B",
"J  c #A76C14",
"K  c #B57A18",
"L  c #BF6709",
"P  c #9B7622",
"I  c #A37820",
"U  c #C66A06",
"Y  c #CA6C06",
"T  c #CC6E0A",
"R  c #C36809",
"E  c #D67305",
"W  c #DC7A06",
"Q  c #D57409",
"!  c #DC7807",
"~  c #C86A12",
"^  c #C17812",
"/  c #E17E05",
"(  c #E07B0C",
")  c #7E8179",
"_  c #A88716",
"`  c #9B9837",
"'  c #B78B27",
"]  c #BC922B",
"[  c #A99C3D",
"{  c #AA8529",
"}  c #ACA33E",
"|  c #C7870C",
" . c #DB8207",
".. c #DD8408",
"X. c #DE8B0B",
"o. c #D78006",
"O. c #DA920B",
"+. c #DE9B13",
"@. c #CB8815",
"#. c #E18406",
"$. c #E18D0B",
"%. c #E78906",
"&. c #F78C05",
"*. c #E5930E",
"=. c #E9960D",
"-. c #EC9C0D",
";. c #E89507",
":. c #F39505",
">. c #FC9503",
",. c #FC9A04",
"<. c #F9990A",
"1. c #EC8117",
"2. c #F78D14",
"3. c #EB9B11",
"4. c #E69811",
"5. c #F39D17",
"6. c #CDA01A",
"7. c #FEA402",
"8. c #FDAE00",
"9. c #F4A30D",
"0. c #FCA70C",
"q. c #FEB500",
"w. c #FEBC00",
"e. c #ECA212",
"r. c #E8A91C",
"t. c #F3A414",
"y. c #FAA616",
"u. c #F5A915",
"i. c #FBAC15",
"p. c #FEAE19",
"a. c #F5AB1C",
"s. c #FEB31C",
"d. c #FEB514",
"f. c #D49825",
"g. c #F59629",
"h. c #F59C34",
"j. c #EF8620",
"k. c #DCA824",
"l. c #DBBA25",
"z. c #CCA332",
"x. c #D4AF2C",
"c. c #E7AE26",
"v. c #F5AC23",
"b. c #ECB327",
"n. c #FEB523",
"m. c #FEBC2B",
"M. c #F9B827",
"N. c #FFBD30",
"B. c #F2BA35",
"V. c #E4B838",
"C. c #FFC300",
"Z. c #FFCD0D",
"A. c #FFD800",
"S. c #FFD610",
"D. c #FCC62D",
"F. c #FED72D",
"G. c #FFC334",
"H. c #FFCD36",
"J. c #FAC63C",
"K. c #FFCD39",
"L. c #FFD335",
"P. c #FFDA32",
"I. c #EFC532",
"U. c #FFE231",
"Y. c #FFE02E",
"T. c #AD9944",
"R. c #B19945",
"E. c #B3AE42",
"W. c #80837E",
"Q. c #C3BE4B",
"!. c #D6D155",
"~. c #CFCB4F",
"^. c #FFD859",
"/. c #FEC441",
"(. c #FFE649",
"). c #F1EB5A",
"_. c #F3ED5C",
"`. c #FFDA63",
"'. c #FFDE70",
"]. c #FFE967",
"[. c #FFF46B",
"{. c #FFFB6C",
"}. c #FAF467",
"|. c #FDE372",
" X c #FEEC75",
".X c #FEE47D",
"XX c #FFFC73",
"oX c #FDF67B",
"OX c #FEF677",
"+X c #EBE660",
"@X c #7C7F82",
"#X c #878A89",
"$X c #949691",
"%X c #9EA09A",
"&X c #A5A8A2",
"*X c #B1B4AE",
"=X c #B7BAB3",
"-X c #FFEC83",
";X c #FEE98A",
":X c #FEF683",
">X c #FFF886",
",X c #FFF98B",
"<X c #FFF393",
"1X c #FFF994",
"2X c #FFF99B",
"3X c #FFEE94",
"4X c #FFFAA4",
"5X c #FFFAAB",
"6X c #FFF5AC",
"7X c #FFFBB4",
"8X c #FFFBBB",
"9X c #FFF6B2",
"0X c #FFFCC5",
"qX c #FFFCCB",
"wX c #FFFDD5",
"eX c #FFFDDE",
"rX c #FFFED8",
"tX c #FFFFE9",
/* pixels */
"                                                                                    ",
"                                                                                    ",
"                                h.v.8.q.w.w.q.8.a.h.                                ",
"                          h.y.w.A.A.(.]. X X].(.A.A.w.7.g.                          ",
"                      g.0.C.S. X6XqXeXtXtXtXtXeXqX9X-XF.C.7.g.                      ",
"                    g.w.Z.;X0XrXeXeXeXeXeXeXeXeXeXeXrX0X3XL.w.5.                    ",
"                  y.w.`.9XqXqX0XqXqXwXrXrXrXrXwXqXqX0X0XqX7X|.w.7.                  ",
"                0.w..X7X7X9X8X8X0X0X0XqXqXqXqX0X0X8X8X7X9X7X7X;XC.8.j.              ",
"              0.w..X4X4X4X5X5X5X9X7X8X8X8X8X8X8X7X9X5X5X5X4X4X4X;Xd.7.              ",
"            <.q.'.<X<X1X2X2X2X4X4X4X5X5X5X5X5X5X4X4X4X2X2X2X1X<X<X.Xq.,.            ",
"          2.8.^.-X-X:X>X>X,X,X1X1X2X2X2X2X2X2X2X1X1X1X,X,X>X>X:X-X-X`.8.2.          ",
"        1.7.m.|.|. X XoXoXoX:X:X>X>X>X>X>X>X>X>X>X>X:X:XoXoXoX X X|.|./.7.1.        ",
"        &.q.^.].].[.[.XXXXXXXXXXXXOXoXoXoXoXoXoXOXXXXXXXXXXX{.[.[.].].^.d.&.        ",
"      1.>.' R.T.T.[ [ } E.Q.!.+X}.{.{.{.{.{.{.{.{.}.+X!.Q.E.} [ T.T.T.R.] ,.1.      ",
"      &.^ O o . : l c b b x k 4 h ` !.)._._.).~.` h q l z c c z k ; X o O @.&.      ",
"      >.O.% $ g #X&X*X=X=X=X*X&X#Xc ; g m j 9 ; b @X$X&X&X&X&X%X$XN 8 # u O.:.      ",
"    ( >.t.S . v M M V V V V B B W.) g . O O . v N M M n n n n v v v 6 o D ;.:.(     ",
"    ( ,.t.@.o 6 9 9 9 0 0 0 9 2 @ @ * o _ S o * # # @ 4 2 4 4 & @ @ # + | -.<.(     ",
"    ( <.t.+.- o # @ @ % 1 4 1 4 4 & # o I.l.o = 2 3 3 7 9 9 9 7 3 2 > y O.e.:.!     ",
"    ! :.t.e.Z O * 2 3 7 3 7 9 9 3 5 O F U.F.f O 6 9 9 9 9 9 9 9 9 5 ; G ;.e.:.!     ",
"    ! :.u.u.| O * 4 3 9 9 9 9 3 & 2 o l.U.U.x.o 6 2 9 9 9 9 9 9 4 1 & | 3.u.:.!     ",
"    ! ;.9.a.e.Z ; 6 * 1 1 1 2 = 5 O _ P.P.P.F.F O 6 * & & 1 1 2 = O G ;.u.u.;.!     ",
"    Q ;.9.s.a.+.f ; > < 4 , > ; o _ F.P.P.P.P.D.F O : , , 4 < > O d O.r.s.9.;.!     ",
"    Q %.9.i.n.M.r.H d y - - a D k.F.P.P.P.P.P.P.F.6.S y - - y d H 4.v.n.i.9.%.Q     ",
"    T %.-.u.s.m.m.m.M.b.c.b.D.L.P.L.P.P.P.P.P.P.P.P.D.b.c.r.b.M.M.m.m.s.u.-.%.T     ",
"    ~ %.=.9.p.n.m.G.G.G.H.L.L.L.L.L.L.L.L.L.L.L.L.L.H.H.L.H.G.G.G.m.n.p.9.=.%.~     ",
"      ! $.-.u.s.n.m.G.b.K G.K.H.H.H.K.K.L.L.H.H.H.H.H.K.B.K B.G.N.n.s.u.9.$.!       ",
"      T #.=.t.i.s.m.N.J.d C c.G.K.K.K.K.K.K.K.K.K.K.G.k.i P K.N.m.s.p.u.=.#.T       ",
"      ~ / $.-.u.p.s.M.G.B.f e J f.B.G.K.K.K.K.G.b.f.J w S J.N.m.s.p.u.3.*.#.~       ",
"        Y  .=.t.y.p.s.n.G.I.P e r s C J K K J C p e r { J.N.n.s.p.y.t.=. .Y         ",
"        ~ / X.3.t.u.p.s.n.m.J.z.D s i t t t t i A I x.K.m.n.s.p.y.t.3.X./ ~         ",
"          Y W X.3.t.u.p.s.s.n.G.J.V.z.] ' ' ] z.V.J.G.n.n.s.p.y.t.3.$.W Y           ",
"            E o.$.3.t.u.y.p.s.s.s.m.G.G.G.G.G.G.n.s.s.s.p.y.u.t.3.*. .E             ",
"              !  .X.3.e.u.y.i.p.p.p.p.p.p.p.p.p.p.p.p.i.y.u.t.3.$. .!               ",
"                !  .X.*.3.t.u.y.y.i.p.p.p.p.p.p.i.y.y.u.t.3.*.$. .! R               ",
"                  E  .X.*.3.3.t.t.u.y.y.y.y.y.y.u.t.t.3.3.*.X. .E                   ",
"                    Y /  .$.*.=.3.3.3.5.t.t.5.3.3.3.=.*.$.../ Y                     ",
"                      R Y /  .$.$.*.*.=.=.=.=.=.*.$.$. ./ Y R                       ",
"                          R U E / #.#.#.....#.#.#./ E U R                           ",
"                                L U U Y Y Y U U R R                                 ",
"                                                                                    ",
"                                                                                    "
};
