/* XPM */
static char *_fbfcdec8e4f4e45bc8e0f87c03f6622Pb1KWlKiBLbjigff[] = {
/* columns rows colors chars-per-pixel */
"42 42 123 2 ",
"   c None",
".  c black",
"X  c #010101",
"o  c #020202",
"O  c #040403",
"+  c #040404",
"@  c #050504",
"#  c gray2",
"$  c #060605",
"%  c #060606",
"&  c #070706",
"*  c #070707",
"=  c gray3",
"-  c #090909",
";  c #0A0A09",
":  c gray4",
">  c #0B0A0A",
",  c #0B0B0B",
"<  c #0C0C0B",
"1  c #0D0D0C",
"2  c #0E0E0C",
"3  c #0F0E0C",
"4  c #0E0E0D",
"5  c #0F0E0D",
"6  c #0F0E0E",
"7  c #10100F",
"8  c #111110",
"9  c #111111",
"0  c #121210",
"q  c #131210",
"w  c #131211",
"e  c gray7",
"r  c #141413",
"t  c gray8",
"y  c #151514",
"u  c #151515",
"i  c #171614",
"p  c #161615",
"a  c #171615",
"s  c #171715",
"d  c #161616",
"f  c #161617",
"g  c gray9",
"h  c #181818",
"j  c #191919",
"k  c #1B1A18",
"l  c #1B1A19",
"z  c gray10",
"x  c #1C1B19",
"c  c gray11",
"v  c #1D1D1D",
"b  c #1E1E1E",
"n  c #20201D",
"m  c #21201E",
"M  c #21211E",
"N  c #252422",
"B  c #262523",
"V  c #252525",
"C  c gray15",
"Z  c #272727",
"A  c #2A2927",
"S  c #2A2A27",
"D  c #2B2A28",
"F  c #2F2E2C",
"G  c #2F2F2C",
"H  c #302F2D",
"J  c #30302D",
"K  c #313131",
"L  c #343331",
"P  c #353432",
"I  c #353532",
"U  c #363532",
"Y  c #343434",
"T  c #393836",
"R  c #3A3937",
"E  c #3A3A37",
"W  c #393939",
"Q  c gray23",
"!  c #3D3D3B",
"~  c gray24",
"^  c #3E3E3C",
"/  c #3F3E3C",
"(  c #3F3F3D",
")  c #3F3F3F",
"_  c gray25",
"`  c #424140",
"'  c #434341",
"]  c gray26",
"[  c #444341",
"{  c #464644",
"}  c #474745",
"|  c #474746",
" . c #484746",
".. c #474845",
"X. c #474846",
"o. c #484846",
"O. c #4A4948",
"+. c #4A4A48",
"@. c #4B4B4A",
"#. c #4C4B4A",
"$. c #4C4C4B",
"%. c #4D4D4C",
"&. c gray30",
"*. c #4E4E4E",
"=. c #4F4E4E",
"-. c #504F4E",
";. c #505050",
":. c #515050",
">. c #515151",
",. c #525251",
"<. c gray32",
"1. c #535252",
"2. c #535352",
"3. c #535353",
"4. c #545453",
"5. c gray33",
"6. c gray37",
"7. c #5E5E5F",
"8. c #5F5F5F",
"9. c #686868",
"0. c #6F6F6F",
"q. c gray44",
"w. c #717171",
/* pixels */
"  &.) Q Q Q Q Q Q Q Q Q Q Q Q Q Q Q Q Q Q Q Q Q Q Q Q Q Q Q Q Q Q Q Q Q Q Q Q ) &.  ",
"&.K v 9 : : : : : : : : : : : : : : : : : : : : : : : : : : : : : : : : : : 9 v K &.",
") v o j C C C C C C C C C C C C C C C C C C C C C C C C C C C C C C C C C C j o v ) ",
"Q d 9 9.q.0.q.q.q.q.q.q.q.q.q.q.q.q.q.q.q.q.q.q.q.q.q.q.q.q.q.q.q.q.q.q.0.q.9.9 d Q ",
"Q 9 v 8.8.8.8.8.8.8.8.8.8.8.8.8.8.8.8.8.8.8.8.8.8.8.8.8.8.8.8.8.8.8.8.8.8.8.8.v 9 Q ",
"Q d d <.5.4.4.5.4.5.4.5.4.5.5.4.5.5.5.5.4.4.4.5.5.5.4.4.4.5.5.4.4.5.5.4.<.5.<.d d Q ",
"Q d d <.<.<.<.<.<.<.<.<.<.<.<.<.<.<.<.<.<.<.<.<.<.<.<.<.<.<.<.<.<.<.<.<.<.<.<.d d Q ",
"Q d d &.-.&.&.&.&.&.&.&.&.&.&.&.&.&.&.&.&.&.&.&.&.&.&.&.&.&.&.&.&.&.&.&.&.-.&.d d Q ",
"Q d r +.$.+.+.+.+.+.+.+.+.+.+.+.+.+.+.+.+.+.+.+.+.+.#.+.+.#.+.+.+.+.+.+.+.$.+.r d Q ",
"Q d 9 { o.{ { { {  ...{ { ..{ { { { { { { { { { { { { { { { { { ..{ { { { o.{ 9 d Q ",
"Q d 9 ` [ ` ` ` ` ` ` ` ` ` ` ` ` ` ' ` ` ` ` ` ` ` ` ` ` ` ` ` ` ` ` ` ` [ ` 9 d Q ",
"Q d 7 ! ) ) ) ) ) ) ) ) ) ) ) ) ) ) ) ) ) ) ) ) ) ) ) ) ) ) ) ) ) ) ) ) ) ) ! 7 d Q ",
"Q d 1 T T T T T T T T T T T T T T Q Q Q T T T T T T T T T T T T T T T T T T T 1 d Q ",
"Q d 1 L P P P P P P P P P P P P P P P P P P P P P P P P P P P P P P P P P P L 1 d Q ",
"Q d < F J H H H H H J H J J H H H H H J J H H J H J J J J J J J H H J H H J F < d Q ",
"Q d : A D A D D D D D D D D D D D D D D D D D D D D D D D D D D D D D D A D A : d Q ",
"Q d : B B B B B B B B B B B B B B B B B B B B B B B B B B B B B B B B B B B B : d Q ",
"Q d : m m m m m m m m m m m m m m m m m m m m m m m m m m m m m m m m m m m m : d Q ",
"Q d & j x x x x x x x x x x x x x x x x x x x x x x x x x x x x x x x x x x j & d Q ",
"Q d & d d d d d d d d d d d d d d d d d d d d d d d d d d d d d d d d d d d d & d Q ",
"Q d & 9 9 9 9 9 9 9 9 9 9 9 9 9 9 9 9 9 9 9 q 9 9 9 9 9 9 9 9 9 9 9 9 9 7 9 7 & d Q ",
"Q d & 1 1 1 1 1 1 1 1 1 1 1 1 1 1 1 1 1 1 1 1 1 1 1 1 1 1 1 1 1 1 1 1 1 < 1 < & d Q ",
"Q d & : : : : : : : : : : : : : : : : : : : : : : : : : : : : : : : : : : : : & d Q ",
"Q d & & & & & & & & & & & & & & & & & & & & & & & & & & & & & & & & & & & & & & d Q ",
"Q d & O O O O O o o o o o o O O O O O O o o o o O O O O O O o O o o o o o o O & d Q ",
"Q d & o o o o o o o o o o o o o o o o o o o o o o o o o o o o o o o o o o o o & d Q ",
"Q d & o o o o o o o o o o o o o o o o o o o o o o o o o o o o o o o o o o o o & d Q ",
"Q d & o o o o o o o o o o o o o o o o o o o o o o o o o o o o o o o o o o o o & d Q ",
"Q d o o o o o o o o o o o o o o o o o o o o o o o o o o o o o o o o o o o o o & d Q ",
"Q d o o o o o o o o o o o o o o o o o o o o o o o o o o o o o o o o o o o o o & d Q ",
"Q d o o o o o o o o o o o o o o o o o o o o o o o o o o o o o o o o o o o o o & d Q ",
"Q d o o o o o o o o o o o o o o o o o o o o o o o o o o o o o o o o o o o o o & d Q ",
"Q d & o o o o o o o o o o o o o o o o o o o o o o o o o o o o o o o o o o o o & d Q ",
"Q d & o o o o o o o o o o o o o o o o o o o o o o o o o o o o o o o o o o o o & d Q ",
"Q d & o o o o o o o o o o o o o o o o o o o o o o o o o o o o o o o o o o o o o d Q ",
"Q d & o o o o o o o o o o o o o o o o o o o o o o o o o o o o o o o o o o o o o d Q ",
"Q d & o o o o o o o o o o o o o o o o o o o o o o o o o o o o o o o o o o o o o d Q ",
"Q j & o o o o o o o o o o o o o o o o o o o o o o o o o o o o o o o o o o o o o g Q ",
"Q g & o o o o o o o o o o o o o o o o o o o o o o o o o o o o o o o o o o o o o j Q ",
") v : & & & & & & & & & & & & & & & & & & & & & & & & & & & & & & & & & & & & : v ` ",
"&.K v j j j j j j j j j j j j j j j j j j j j j j j j j j j j j j j j j j j j v Y <.",
"  <.` ) ) ) ) ) ) ) ) ) ) ) ) ) ) ) ) ) ) ) ) ) ) ) ) ) ) ) ) ) ) ) ) ) ) ) ) ` <.  "
};
